<svg version="1.1" id="Layer_1" xmlns="http://www.w3.org/2000/svg" xmlns:xlink="http://www.w3.org/1999/xlink" x="0px" y="0px"
	 width="100%" viewBox="0 0 372 116" enable-background="new 0 0 372 116" xml:space="preserve">
<path fill="#8BCFDB" opacity="1.000000" stroke="none" 
	d="
M95.000000,1.000000 
	C125.354225,1.000000 155.708450,1.000000 186.474625,1.335314 
	C178.116989,9.887652 169.347397,18.104675 160.292007,26.510571 
	C146.067810,35.519394 132.129410,44.339344 117.928986,52.889183 
	C117.053619,50.757309 116.787476,48.669254 115.752937,47.082031 
	C113.749496,44.008266 111.767807,40.192043 106.478035,43.072838 
	C104.885155,43.394135 103.749855,43.733055 102.594864,44.068092 
	C102.575157,44.064213 102.488213,44.027348 102.171638,44.065552 
	C101.577843,44.405033 101.300621,44.706314 101.011780,44.993687 
	C101.000160,44.979778 101.031998,44.962551 100.706345,45.179142 
	C99.957581,47.299431 99.252670,49.190613 99.167435,51.109322 
	C98.962112,55.731167 99.046844,60.365898 98.635544,64.885292 
	C93.836334,64.079056 89.416176,63.382957 84.840111,62.555645 
	C84.431129,62.322189 84.189964,62.197018 83.964684,61.605156 
	C84.970200,47.320301 75.744370,40.902912 66.480934,37.604687 
	C63.419926,36.514828 59.523033,37.772644 55.613071,38.027550 
	C52.171421,38.747913 49.125031,39.397762 45.810986,39.799595 
	C30.695553,35.034386 15.847776,30.517195 1.000000,26.000000 
	C1.000000,24.611111 1.000000,23.222221 1.351571,21.521158 
	C10.010489,23.959946 18.274595,26.855215 26.653952,29.365843 
	C28.899269,30.038589 31.600168,30.010952 33.914986,29.501257 
	C51.708302,25.583372 68.176582,18.379374 83.616798,8.794422 
	C87.519936,6.371441 91.211311,3.607346 95.000000,1.000000 
z"/>
<path fill="#8BCFDC" opacity="1.000000" stroke="none" 
	d="
M248.000000,0.999999 
	C275.020905,1.000000 302.041779,1.000000 329.555359,1.349080 
	C328.728668,3.393126 327.537689,5.209392 326.069519,6.763830 
	C314.571350,18.937586 303.019958,31.061121 291.113342,43.165844 
	C285.344788,42.478729 283.969879,45.751266 283.534241,50.349297 
	C278.612488,54.366421 273.978607,58.255657 268.988434,61.937080 
	C268.087250,58.776737 267.142487,55.833237 267.075592,52.869923 
	C266.904022,45.270405 259.598022,36.866879 251.057144,41.087543 
	C248.619171,42.292316 246.207428,42.317905 245.397064,39.106621 
	C246.903183,38.831860 248.474991,38.968697 249.044647,38.278465 
	C250.514038,36.498055 252.222977,34.435604 252.482178,32.319920 
	C252.632538,31.092846 250.203033,28.436146 248.871429,28.393532 
	C246.696991,28.323946 243.796463,29.304840 242.474838,30.898132 
	C241.367004,32.233700 242.076691,35.076893 241.824478,37.601974 
	C240.947327,38.290340 240.243073,38.883945 239.504959,38.929554 
	C230.299652,39.498409 220.860153,37.488438 211.954239,41.477551 
	C211.734863,41.575806 211.191360,40.950348 210.993317,40.399063 
	C213.634705,37.937382 216.279266,35.920540 218.494888,33.509518 
	C228.396774,22.734438 238.176285,11.846912 248.000000,0.999999 
z"/>
<path fill="#8ACFDB" opacity="1.000000" stroke="none" 
	d="
M97.000000,117.000000 
	C65.100319,117.000000 33.200634,117.000000 1.000000,117.000000 
	C1.000000,102.647171 1.000000,88.292244 1.468502,73.482300 
	C11.925093,73.028671 21.913183,73.030067 31.788168,73.342010 
	C26.755171,76.980988 21.898254,80.407715 16.898523,83.611572 
	C11.370244,87.154129 8.720208,94.821892 11.090711,101.061134 
	C13.766694,108.104424 20.247009,112.107155 27.155828,110.496506 
	C30.494139,109.718246 34.080940,108.664551 36.763550,106.670509 
	C44.330662,101.045715 51.487984,94.869621 59.207329,88.784027 
	C61.910290,88.432327 64.208282,88.128448 66.516075,87.998268 
	C72.033638,87.687004 76.932358,84.066711 78.859818,78.798874 
	C78.901039,78.794250 78.833939,78.842979 79.064896,78.800850 
	C79.589859,78.627518 79.825577,78.427605 80.374222,78.021286 
	C86.144432,76.829636 91.543434,75.775681 96.965134,75.108673 
	C97.783112,80.449150 100.789322,83.764313 105.463669,84.805984 
	C114.648079,86.852730 123.870850,88.682930 133.178436,84.619812 
	C136.157593,83.319298 139.764679,83.364082 140.682526,87.981804 
	C132.761185,92.440483 124.864365,96.285652 117.613716,101.103325 
	C110.404465,105.893501 103.844620,111.661049 97.000000,117.000000 
z"/>
<path fill="#8ACFDB" opacity="1.000000" stroke="none" 
	d="
M351.000000,117.000000 
	C326.979095,117.000000 302.958221,117.000000 278.597931,116.692009 
	C290.167664,105.251244 302.076813,94.118462 314.327576,83.152237 
	C323.614777,87.386826 328.400848,84.821762 332.463348,74.024689 
	C338.056671,74.032829 343.182434,74.049019 348.118469,74.353729 
	C344.646118,77.434929 341.363495,80.227600 337.750702,83.111786 
	C336.132019,84.246460 334.766632,85.208801 333.569183,86.347694 
	C329.774597,89.956635 328.515381,94.869560 331.027588,97.267670 
	C334.863770,100.929619 338.690826,98.622604 341.663574,96.068787 
	C346.035004,92.313400 349.841217,87.900101 354.173706,83.597931 
	C360.639435,78.952522 366.819733,74.476257 373.000000,70.000000 
	C373.000000,76.021156 373.000000,82.042305 372.701569,88.681786 
	C365.268768,98.533401 358.134369,107.766701 351.000000,117.000000 
z"/>
<path fill="#1E5F6F" opacity="1.000000" stroke="none" 
	d="
M291.485016,43.200150 
	C303.019958,31.061121 314.571350,18.937586 326.069519,6.763830 
	C327.537689,5.209392 328.728668,3.393126 330.024048,1.349080 
	C344.222321,1.000000 358.444641,1.000000 373.000000,1.000000 
	C373.000000,5.679630 373.000000,10.367151 372.748840,15.745062 
	C362.665466,27.959545 352.833313,39.483643 342.982178,50.613739 
	C342.356659,47.812435 342.111694,45.222748 341.020691,43.059803 
	C340.250916,41.533772 338.386017,39.621338 336.919495,39.541325 
	C328.748962,39.095512 320.537567,38.859386 312.369934,39.222027 
	C309.866547,39.333176 307.457123,41.560410 304.675964,42.938602 
	C303.081909,44.341839 301.816589,45.625095 300.315125,46.557816 
	C298.016846,45.870758 295.954742,45.534241 293.610382,45.054325 
	C292.713776,44.340672 292.099396,43.770412 291.485016,43.200150 
z"/>
<path fill="#1D5D6E" opacity="1.000000" stroke="none" 
	d="
M313.985931,82.985687 
	C302.076813,94.118462 290.167664,105.251244 278.129272,116.692009 
	C257.645782,117.000000 237.291550,117.000000 216.592361,116.687897 
	C220.310623,112.979897 224.273010,109.453674 228.458252,106.215485 
	C236.921600,99.667305 245.505844,93.275406 254.282562,86.771980 
	C254.819855,86.543320 255.022842,86.288437 255.393921,85.878998 
	C255.771683,85.659393 255.889389,85.521042 256.268341,85.290512 
	C257.679352,84.453720 258.829102,83.709099 260.355774,82.955162 
	C262.826355,82.017952 264.920074,81.090065 267.219604,80.350311 
	C267.953827,80.695045 268.482239,80.851646 269.172302,81.193817 
	C269.885498,81.255852 270.437042,81.132309 271.325562,81.006508 
	C272.111847,81.005066 272.561157,81.005882 273.336975,81.260345 
	C286.214020,81.514000 298.764587,81.514000 311.315155,81.514000 
	C311.314636,81.338333 311.314117,81.162674 311.313599,80.987007 
	C306.872040,80.987007 302.430481,80.987007 298.049652,80.639839 
	C300.637512,73.664345 306.187958,73.626610 312.086578,73.985321 
	C312.263397,74.008202 312.619812,74.020355 312.720612,74.371033 
	C314.572571,76.127571 316.323700,77.533432 318.004150,79.226273 
	C317.620728,80.009155 317.308014,80.505051 316.713684,81.121376 
	C315.616638,81.823097 314.801300,82.404388 313.985931,82.985687 
z"/>
<path fill="#8BCFDB" opacity="1.000000" stroke="none" 
	d="
M256.007080,85.382683 
	C255.889389,85.521042 255.771683,85.659393 255.179321,85.981079 
	C254.432022,86.330719 254.210556,86.548935 254.040237,86.819054 
	C245.505844,93.275406 236.921600,99.667305 228.458252,106.215485 
	C224.273010,109.453674 220.310623,112.979897 216.123703,116.687897 
	C192.645767,117.000000 169.291550,117.000000 145.568054,116.674644 
	C157.266922,108.868034 169.105743,100.977226 181.482773,94.047676 
	C189.914825,89.326797 199.099609,85.950394 208.353531,81.989761 
	C210.200104,82.256737 211.896805,82.100471 213.041275,82.821167 
	C222.063858,88.502953 232.033051,86.752937 241.342926,85.235245 
	C246.526657,84.390190 251.102890,83.339615 256.007080,85.382683 
z"/>
<path fill="#1F6071" opacity="1.000000" stroke="none" 
	d="
M94.531342,1.000000 
	C91.211311,3.607346 87.519936,6.371441 83.616798,8.794422 
	C68.176582,18.379374 51.708302,25.583372 33.914986,29.501257 
	C31.600168,30.010952 28.899269,30.038589 26.653952,29.365843 
	C18.274595,26.855215 10.010489,23.959946 1.351571,21.104492 
	C1.000000,14.359020 1.000000,7.718041 1.000000,1.000000 
	C32.020855,1.000000 63.041771,1.000000 94.531342,1.000000 
z"/>
<path fill="#206172" opacity="1.000000" stroke="none" 
	d="
M247.531342,0.999999 
	C238.176285,11.846912 228.396774,22.734438 218.494888,33.509518 
	C216.279266,35.920540 213.634705,37.937382 210.692139,40.525349 
	C208.798691,41.944756 207.400711,42.974514 205.773376,43.769516 
	C205.362259,42.689892 205.180511,41.845016 205.295715,40.832390 
	C208.732697,37.610023 213.690201,36.155510 213.967407,30.522326 
	C214.012039,29.615328 216.298996,28.424473 217.727509,28.056757 
	C221.404617,27.110233 222.605240,25.148636 221.752274,22.565865 
	C215.911346,21.559774 210.814087,20.656677 205.706604,19.815866 
	C203.958176,19.528036 201.111862,18.657808 200.639664,19.343369 
	C199.580215,20.881586 199.516846,23.218679 199.408081,25.249804 
	C199.356064,26.221172 200.124115,27.236454 200.520752,28.231848 
	C195.348267,25.147064 192.466476,28.042046 189.503632,31.495462 
	C188.566193,32.588120 186.730118,32.909798 186.415009,33.058975 
	C182.168808,30.080753 178.689438,27.640388 173.704483,24.144022 
	C175.075958,29.470985 175.091675,33.114166 170.295288,34.381390 
	C166.767166,35.313541 163.307281,36.504025 159.816986,37.579391 
	C159.618088,37.166142 159.419189,36.752892 159.220306,36.339645 
	C161.706543,33.208805 166.818710,30.347149 160.577820,26.321701 
	C169.347397,18.104675 178.116989,9.887652 186.943283,1.335314 
	C207.020889,1.000000 227.041794,1.000000 247.531342,0.999999 
M166.205368,24.645472 
	C166.269714,25.675079 166.334061,26.704689 166.398407,27.734293 
	C167.392365,27.127438 168.386307,26.520582 169.380264,25.913729 
	C168.529068,25.378338 167.677872,24.842949 166.205368,24.645472 
z"/>
<path fill="#1E5E6F" opacity="1.000000" stroke="none" 
	d="
M207.947815,81.972809 
	C199.099609,85.950394 189.914825,89.326797 181.482773,94.047676 
	C169.105743,100.977226 157.266922,108.868034 145.099396,116.674644 
	C129.312439,117.000000 113.624878,117.000000 97.468658,117.000000 
	C103.844620,111.661049 110.404465,105.893501 117.613716,101.103325 
	C124.864365,96.285652 132.761185,92.440483 141.029449,87.915085 
	C145.440582,86.192451 149.197128,84.723885 152.926544,83.652992 
	C153.250656,85.850716 153.152832,87.926239 154.051147,89.390717 
	C155.678452,92.043594 157.776718,94.449783 159.939056,96.709488 
	C160.701263,97.506012 162.226822,97.572098 163.403839,97.971687 
	C163.484787,96.704826 164.140762,94.932610 163.547867,94.257996 
	C160.885345,91.228516 162.900818,89.592712 164.925995,87.662804 
	C166.412308,86.246414 167.654739,84.574097 169.337036,83.013077 
	C170.109848,83.015175 170.551468,83.020035 171.050888,83.376160 
	C172.604431,84.985497 174.100174,86.243568 175.595917,87.501633 
	C175.390823,85.994034 175.185730,84.486427 175.287445,82.731522 
	C178.401474,81.987320 181.208679,81.490425 184.355057,80.849976 
	C189.130310,80.805336 193.566437,80.902351 198.002457,81.003761 
	C201.378738,81.080948 204.754883,81.163704 208.094940,81.428604 
	C208.058777,81.613243 207.947815,81.972801 207.947815,81.972809 
M150.420471,102.258568 
	C152.020676,102.981552 153.620895,103.704529 155.221115,104.427513 
	C155.590408,102.904442 156.699249,100.430565 156.191223,100.035416 
	C154.626648,98.818451 152.465698,97.904495 150.494781,97.817535 
	C148.861359,97.745445 147.183044,99.050652 145.497742,99.672897 
	C144.295929,100.116623 143.049561,100.439651 141.823059,100.816551 
	C141.612381,100.442192 141.401703,100.067833 141.191025,99.693481 
	C142.259689,98.518280 143.255630,97.264336 144.418213,96.190834 
	C145.501801,95.190300 146.762604,94.381706 148.460403,93.099762 
	C143.094330,92.394974 136.160690,97.376427 136.308762,101.460663 
	C136.352280,102.660797 138.422241,104.868896 139.352280,104.762856 
	C142.843246,104.364815 146.246933,103.201134 150.420471,102.258568 
z"/>
<path fill="#88CFDB" opacity="1.000000" stroke="none" 
	d="
M343.001129,51.007729 
	C352.833313,39.483643 362.665466,27.959545 372.748840,16.217724 
	C373.000000,29.354227 373.000000,42.708454 372.663513,56.616756 
	C365.897675,61.789139 359.490234,66.438599 353.016907,70.994408 
	C351.965515,71.734344 350.622009,72.059189 348.928375,72.409424 
	C342.634583,72.164986 336.825928,72.087013 330.748901,71.989944 
	C330.301208,71.970047 330.121857,71.969238 330.043213,71.674355 
	C331.115082,70.632278 332.086243,69.884285 333.401550,69.050308 
	C341.052887,64.867302 348.360138,60.770283 355.667358,56.673264 
	C355.528046,56.354744 355.388733,56.036224 355.249451,55.717705 
	C348.543304,57.119274 341.837158,58.520844 335.237183,59.615646 
	C337.895905,56.541824 340.448517,53.774773 343.001129,51.007729 
z"/>
<path fill="#8ACFDB" opacity="1.000000" stroke="none" 
	d="
M1.000000,72.000000 
	C1.000000,64.312424 1.000000,56.624847 1.400635,48.483528 
	C13.984867,43.732635 26.562464,44.730095 38.964249,45.558510 
	C32.235657,53.437843 32.080261,62.001255 34.547478,71.104881 
	C32.353714,71.442749 30.569620,71.917511 28.781254,71.934189 
	C19.521437,72.020576 10.260528,71.989876 1.000000,72.000000 
z"/>
<path fill="#1F6071" opacity="1.000000" stroke="none" 
	d="
M39.104809,45.253815 
	C26.562464,44.730095 13.984867,43.732635 1.400635,48.014893 
	C1.000000,40.979053 1.000000,33.958103 1.000000,26.468578 
	C15.847776,30.517195 30.695553,35.034386 45.597122,40.057709 
	C43.468880,42.127163 41.286842,43.690491 39.104809,45.253815 
z"/>
<path fill="#206172" opacity="1.000000" stroke="none" 
	d="
M349.413513,72.575897 
	C350.622009,72.059189 351.965515,71.734344 353.016907,70.994408 
	C359.490234,66.438599 365.897675,61.789139 372.663513,57.085415 
	C373.000000,61.024544 373.000000,65.049088 373.000000,69.536819 
	C366.819733,74.476257 360.639435,78.952522 353.831696,83.388885 
	C348.163116,83.239426 343.121979,83.129860 338.080872,83.020279 
	C341.363495,80.227600 344.646118,77.434929 348.384308,74.208618 
	C349.023102,73.421104 349.206329,73.067223 349.397705,72.679352 
	C349.405823,72.645370 349.413513,72.575897 349.413513,72.575897 
z"/>
<path fill="#1D5D6E" opacity="1.000000" stroke="none" 
	d="
M351.468781,117.000000 
	C358.134369,107.766701 365.268768,98.533401 372.701569,89.150055 
	C373.000000,98.250832 373.000000,107.501656 373.000000,117.000000 
	C365.981110,117.000000 358.959351,117.000000 351.468781,117.000000 
z"/>
<path fill="#4A9BB3" opacity="1.000000" stroke="none" 
	d="
M1.000000,72.250000 
	C10.260528,71.989876 19.521437,72.020576 28.781254,71.934189 
	C30.569620,71.917511 32.353714,71.442749 34.612194,71.373566 
	C35.104309,71.931732 35.124012,72.295631 34.852798,72.720428 
	C34.365559,72.812332 34.169231,72.843323 33.626160,72.874245 
	C32.820030,72.926605 32.360653,72.979042 31.901272,73.031471 
	C21.913183,73.030067 11.925093,73.028671 1.468502,73.013641 
	C1.000000,73.000000 1.000000,72.500000 1.000000,72.250000 
z"/>
<path fill="#1F5F6F" opacity="1.000000" stroke="none" 
	d="
M160.292007,26.510571 
	C166.818710,30.347149 161.706543,33.208805 159.220306,36.339645 
	C159.419189,36.752892 159.618088,37.166142 159.816986,37.579391 
	C163.307281,36.504025 166.767166,35.313541 170.295288,34.381390 
	C175.091675,33.114166 175.075958,29.470985 173.704483,24.144022 
	C178.689438,27.640388 182.168808,30.080753 186.415009,33.058975 
	C186.730118,32.909798 188.566193,32.588120 189.503632,31.495462 
	C192.466476,28.042046 195.348267,25.147064 200.520752,28.231848 
	C200.124115,27.236454 199.356064,26.221172 199.408081,25.249804 
	C199.516846,23.218679 199.580215,20.881586 200.639664,19.343369 
	C201.111862,18.657808 203.958176,19.528036 205.706604,19.815866 
	C210.814087,20.656677 215.911346,21.559774 221.752274,22.565865 
	C222.605240,25.148636 221.404617,27.110233 217.727509,28.056757 
	C216.298996,28.424473 214.012039,29.615328 213.967407,30.522326 
	C213.690201,36.155510 208.732697,37.610023 204.944565,40.771790 
	C202.772629,39.669662 201.205368,37.375740 199.732224,37.434654 
	C192.495560,37.724060 185.283783,38.637287 178.064362,39.341984 
	C177.918457,39.356224 177.760941,39.489761 177.651779,39.607464 
	C174.882309,42.593922 172.118591,45.585705 169.351868,48.578720 
	C166.030609,46.370922 161.998581,43.572018 157.840485,40.975018 
	C155.656967,39.611275 153.690048,39.744110 152.632141,42.876442 
	C145.288406,45.626106 145.423920,52.657524 142.982086,58.418060 
	C142.992996,59.151501 142.995499,59.570667 142.740814,60.136333 
	C141.994507,60.840534 141.505371,61.398239 141.068329,62.274357 
	C141.487488,63.102242 141.854523,63.611710 142.044678,64.402405 
	C140.554764,65.456993 139.241714,66.230347 137.529037,67.023560 
	C134.374939,67.091957 131.537537,67.594864 128.880417,67.109924 
	C117.729874,65.074890 117.749634,64.966621 118.034782,53.784966 
	C118.097824,53.579304 118.191025,53.159298 118.191025,53.159298 
	C132.129410,44.339344 146.067810,35.519394 160.292007,26.510571 
M210.707687,25.545609 
	C209.414505,25.371752 208.121323,25.197897 206.828140,25.024042 
	C206.757339,25.760481 206.686539,26.496918 206.615738,27.233356 
	C207.948944,26.904995 209.282166,26.576633 210.707687,25.545609 
z"/>
<path fill="#FBFCFD" opacity="1.000000" stroke="none" 
	d="
M35.143715,72.659523 
	C35.124012,72.295631 35.104309,71.931732 35.019890,71.299149 
	C32.080261,62.001255 32.235657,53.437843 38.964249,45.558510 
	C41.286842,43.690491 43.468880,42.127163 45.864777,40.305725 
	C49.125031,39.397762 52.171421,38.747913 56.005219,38.076828 
	C70.853546,41.392666 78.186005,48.251411 77.590431,57.830376 
	C75.038574,58.024105 72.440697,58.221329 69.631729,58.317669 
	C68.924141,57.809631 68.427643,57.402485 67.899017,56.666821 
	C66.835045,54.817200 65.803192,53.296093 64.563522,51.508286 
	C63.218494,50.560753 62.081299,49.879925 60.721748,49.108028 
	C60.499393,49.016960 60.025677,49.097778 59.659592,49.048813 
	C58.556767,48.954384 57.820026,48.908920 56.856960,48.567513 
	C45.900005,48.250202 40.288754,57.209423 44.920509,67.454468 
	C45.884396,68.775764 46.575668,70.314354 47.650978,70.660744 
	C54.982403,73.022362 52.850414,78.677925 52.789452,85.151398 
	C47.738445,81.895973 43.495850,79.261230 39.371861,76.452354 
	C37.820881,75.395966 36.545006,73.935677 35.143715,72.659523 
z"/>
<path fill="#E4EDEF" opacity="1.000000" stroke="none" 
	d="
M102.614563,44.071976 
	C103.749855,43.733055 104.885155,43.394135 106.697937,43.357838 
	C111.689590,47.457119 109.188324,52.633430 110.032410,57.572437 
	C109.964996,61.422443 109.964996,64.818901 109.964996,68.153030 
	C117.559067,69.224434 125.516998,65.824554 130.817322,73.418777 
	C128.659836,75.464973 126.688744,78.457024 124.487907,78.636818 
	C119.326988,79.058449 114.056084,78.133781 108.818756,77.595718 
	C108.707314,77.213081 108.534775,77.112312 108.256134,76.719864 
	C108.075958,75.492729 107.929863,74.680763 107.826965,73.413643 
	C107.843040,68.365005 107.815926,63.771526 107.833359,58.710438 
	C107.879456,56.299232 107.685043,54.331352 107.922287,52.416969 
	C108.458054,48.093769 106.967979,45.211346 102.614563,44.071976 
M118.444939,74.088959 
	C115.839211,74.234398 113.233482,74.379829 109.427040,74.592285 
	C115.381187,77.995293 123.446533,77.464668 125.380478,74.073982 
	C123.262039,74.073982 121.307976,74.073982 118.444939,74.088959 
M116.585487,72.913559 
	C119.783127,72.913559 122.980766,72.913559 126.178406,72.913559 
	C126.157364,72.360336 126.136330,71.807114 126.115295,71.253891 
	C120.788887,71.253891 115.462471,71.253891 110.136063,71.253891 
	C110.128174,71.807259 110.120293,72.360619 110.112404,72.913986 
	C111.953514,72.913986 113.794617,72.913986 116.585487,72.913559 
z"/>
<path fill="#7AB5BF" opacity="1.000000" stroke="none" 
	d="
M69.842812,58.418556 
	C72.440697,58.221329 75.038574,58.024105 77.590431,57.830376 
	C78.186005,48.251411 70.853546,41.392666 56.400475,38.006317 
	C59.523033,37.772644 63.419926,36.514828 66.480934,37.604687 
	C75.744370,40.902912 84.970200,47.320301 83.635628,61.683998 
	C82.857857,62.278381 82.413124,62.350163 81.606842,62.333260 
	C80.503555,62.233047 79.761803,62.221519 78.575790,62.119606 
	C75.414993,61.965321 72.698463,61.901417 69.983795,61.413635 
	C69.938034,60.132694 69.890427,59.275627 69.842812,58.418556 
z"/>
<path fill="#FBFCFD" opacity="1.000000" stroke="none" 
	d="
M99.014595,64.995430 
	C99.046844,60.365898 98.962112,55.731167 99.167435,51.109322 
	C99.252670,49.190613 99.957581,47.299431 100.858208,45.632332 
	C101.335724,51.380421 101.335724,56.891907 101.335724,62.403397 
	C101.752487,62.442623 102.169258,62.481846 102.586021,62.521072 
	C102.875786,57.588402 103.165550,52.655731 103.455307,47.723061 
	C104.131943,47.721367 104.808571,47.719677 105.485199,47.717987 
	C105.619186,51.418427 105.753174,55.118866 105.534348,59.075687 
	C105.495430,63.875828 105.809319,68.419586 105.966347,73.246948 
	C106.143410,74.713753 106.477333,75.896950 106.608894,77.338936 
	C105.614594,76.100281 104.473000,74.681114 104.115906,73.086296 
	C103.628174,70.908073 103.737625,68.596146 103.591072,66.341530 
	C103.230904,66.362068 102.870728,66.382607 102.510559,66.403137 
	C101.991875,69.574249 101.473198,72.745361 100.692032,75.830238 
	C100.009361,75.153442 99.589172,74.562881 99.177994,73.713875 
	C99.113022,73.299721 99.039032,73.144005 99.030884,72.742966 
	C99.044670,72.336464 98.992592,72.175285 99.036461,71.583740 
	C99.093132,69.100716 99.053864,67.048073 99.014595,64.995430 
z"/>
<path fill="#1F6071" opacity="1.000000" stroke="none" 
	d="
M98.635544,64.885292 
	C99.053864,67.048073 99.093132,69.100716 98.582245,71.578819 
	C94.688660,71.964317 91.345222,71.924355 87.933578,71.535812 
	C86.908913,68.353783 85.952469,65.520317 84.996017,62.686859 
	C89.416176,63.382957 93.836334,64.079056 98.635544,64.885292 
z"/>
<path fill="#84C0CB" opacity="1.000000" stroke="none" 
	d="
M110.099831,57.118893 
	C109.188324,52.633430 111.689590,47.457119 107.155533,43.375458 
	C111.767807,40.192043 113.749496,44.008266 115.752937,47.082031 
	C116.787476,48.669254 117.053619,50.757309 117.928986,52.889183 
	C118.191025,53.159298 118.097824,53.579304 117.687515,53.846813 
	C114.884750,55.115845 112.492294,56.117371 110.099831,57.118893 
z"/>
<path fill="#8EC0CA" opacity="1.000000" stroke="none" 
	d="
M105.887161,58.819305 
	C105.753174,55.118866 105.619186,51.418427 105.485199,47.717987 
	C104.808571,47.719677 104.131943,47.721367 103.455307,47.723061 
	C103.165550,52.655731 102.875786,57.588402 102.586021,62.521072 
	C102.169258,62.481846 101.752487,62.442623 101.335724,62.403397 
	C101.335724,56.891907 101.335724,51.380421 101.183861,45.415741 
	C101.031998,44.962551 101.000160,44.979778 101.348869,45.011345 
	C101.961121,44.704391 102.224663,44.365868 102.488213,44.027348 
	C102.488213,44.027348 102.575157,44.064213 102.594864,44.068092 
	C106.967979,45.211346 108.458054,48.093769 107.922287,52.416969 
	C107.685043,54.331352 107.879456,56.299232 107.519958,58.632599 
	C106.737053,58.954678 106.312111,58.886993 105.887161,58.819305 
z"/>
<path fill="#235E6D" opacity="1.000000" stroke="none" 
	d="
M84.840111,62.555645 
	C85.952469,65.520317 86.908913,68.353783 87.537933,71.566330 
	C86.156097,71.904015 85.101685,71.862610 84.020340,71.446449 
	C83.318405,68.188438 82.643402,65.305191 81.968391,62.421940 
	C82.413124,62.350163 82.857857,62.278381 83.631645,62.127758 
	C84.189964,62.197018 84.431129,62.322189 84.840111,62.555645 
z"/>
<path fill="#E4EDEF" opacity="1.000000" stroke="none" 
	d="
M102.171638,44.065552 
	C102.224663,44.365868 101.961121,44.704391 101.360489,45.025253 
	C101.300621,44.706314 101.577843,44.405033 102.171638,44.065552 
z"/>
<path fill="#87C8D4" opacity="1.000000" stroke="none" 
	d="
M206.002747,44.004272 
	C207.400711,42.974514 208.798691,41.944756 210.497833,40.788712 
	C211.191360,40.950348 211.734863,41.575806 211.954239,41.477551 
	C220.860153,37.488438 230.299652,39.498409 239.504959,38.929554 
	C240.243073,38.883945 240.947327,38.290340 242.108963,37.689735 
	C243.369141,37.999191 244.187668,38.570312 245.006195,39.141438 
	C246.207428,42.317905 248.619171,42.292316 251.057144,41.087543 
	C259.598022,36.866879 266.904022,45.270405 267.075592,52.869923 
	C267.142487,55.833237 268.087250,58.776737 268.813965,62.219986 
	C267.674988,63.867855 266.354187,65.025002 264.961090,65.757629 
	C264.586395,61.620255 264.437958,57.886520 263.938171,54.200424 
	C263.440735,50.531586 263.157562,46.501621 257.853271,45.739525 
	C253.428665,41.693542 250.835419,42.104687 247.472504,46.953812 
	C245.096008,46.260719 243.044510,45.633774 240.660248,44.811111 
	C238.467041,44.068062 236.623550,43.129906 234.742920,43.048405 
	C229.588776,42.825024 224.414017,43.100338 219.256973,42.914017 
	C214.817047,42.753609 212.275986,44.545116 211.451096,48.958054 
	C208.986389,47.807339 206.864105,46.731117 204.896103,45.441380 
	C205.367844,44.820000 205.685303,44.412136 206.002747,44.004272 
z"/>
<path fill="#1F5F6F" opacity="1.000000" stroke="none" 
	d="
M265.033386,66.182144 
	C266.354187,65.025002 267.674988,63.867855 269.170227,62.427803 
	C273.978607,58.255657 278.612488,54.366421 283.578369,50.799397 
	C283.904297,56.379978 283.898254,61.638340 283.542755,67.078415 
	C280.796173,67.628258 278.399078,67.996391 275.638275,68.330681 
	C274.798981,68.380981 274.323334,68.465126 273.464661,68.503288 
	C270.151215,68.463852 267.220764,68.470390 264.290131,68.223335 
	C264.537720,67.373878 264.785553,66.778008 265.033386,66.182144 
z"/>
<path fill="#E7EDEE" opacity="1.000000" stroke="none" 
	d="
M283.892212,66.896706 
	C283.898254,61.638340 283.904297,56.379978 283.866211,50.671516 
	C283.969879,45.751266 285.344788,42.478729 291.113342,43.165848 
	C292.099396,43.770412 292.713776,44.340672 293.652710,45.461693 
	C294.303619,52.694298 294.629974,59.376137 294.902649,66.414474 
	C294.871918,67.490067 294.894836,68.209145 294.787506,69.319611 
	C294.606110,70.527527 294.503662,71.344627 294.512695,72.160500 
	C294.552032,75.708092 293.190521,78.515831 289.447479,78.758751 
	C285.914948,78.987984 284.326172,76.406921 283.881348,72.683655 
	C283.894257,70.458382 283.893219,68.677544 283.892212,66.896706 
M286.466766,47.607044 
	C286.343079,54.018696 286.219360,60.430351 286.001007,67.702126 
	C286.004791,69.143288 286.008575,70.584442 285.962128,72.773483 
	C287.133820,74.115616 288.305542,75.457748 289.477234,76.799881 
	C290.527466,75.331528 291.654694,73.909515 292.583099,72.367805 
	C292.878174,71.877823 292.644196,71.069252 292.800659,69.461166 
	C292.762817,68.189651 292.724945,66.918144 292.648102,64.758568 
	C292.631348,59.491062 292.738770,54.218121 292.508636,48.959953 
	C292.452637,47.680969 291.562561,45.970383 290.528442,45.375813 
	C289.896179,45.012283 288.258423,46.397495 286.466766,47.607044 
z"/>
<path fill="#226476" opacity="1.000000" stroke="none" 
	d="
M245.397064,39.106621 
	C244.187668,38.570312 243.369141,37.999191 242.266113,37.340309 
	C242.076691,35.076893 241.367004,32.233700 242.474838,30.898132 
	C243.796463,29.304840 246.696991,28.323946 248.871429,28.393532 
	C250.203033,28.436146 252.632538,31.092846 252.482178,32.319920 
	C252.222977,34.435604 250.514038,36.498055 249.044647,38.278465 
	C248.474991,38.968697 246.903183,38.831860 245.397064,39.106621 
z"/>
<path fill="#1E5E6F" opacity="1.000000" stroke="none" 
	d="
M31.788168,73.342010 
	C32.360653,72.979042 32.820030,72.926605 33.645184,73.258476 
	C34.950825,75.529175 35.457302,77.886238 36.905930,79.220100 
	C43.030052,84.859070 49.641159,89.670464 58.800987,88.201294 
	C58.834770,88.436462 58.806816,88.910805 58.806816,88.910805 
	C51.487984,94.869621 44.330662,101.045715 36.763550,106.670509 
	C34.080940,108.664551 30.494139,109.718246 27.155828,110.496506 
	C20.247009,112.107155 13.766694,108.104424 11.090711,101.061134 
	C8.720208,94.821892 11.370244,87.154129 16.898523,83.611572 
	C21.898254,80.407715 26.755171,76.980988 31.788168,73.342010 
z"/>
<path fill="#87C8D4" opacity="1.000000" stroke="none" 
	d="
M99.168983,73.972321 
	C99.589172,74.562881 100.009361,75.153442 100.868607,76.132889 
	C108.791168,83.966705 121.729073,86.519501 130.149857,81.768265 
	C133.718674,79.754646 136.858521,79.652534 140.479950,81.168343 
	C144.452118,82.830971 147.907867,82.276062 150.324326,77.848648 
	C152.770767,76.806847 154.883301,75.892685 157.304840,74.966034 
	C158.116989,74.620056 158.620132,74.286583 159.340912,74.187943 
	C160.723480,75.874435 161.888412,77.326088 163.038391,79.121643 
	C163.005325,79.921638 162.987244,80.377716 162.621979,80.969139 
	C160.177063,81.707794 158.079330,82.311119 155.673325,82.883606 
	C154.561264,82.986946 153.757462,83.121132 152.953674,83.255325 
	C149.197128,84.723885 145.440582,86.192451 141.337097,87.727722 
	C139.764679,83.364082 136.157593,83.319298 133.178436,84.619812 
	C123.870850,88.682930 114.648079,86.852730 105.463669,84.805984 
	C100.789322,83.764313 97.783112,80.449150 97.212784,74.946541 
	C98.014832,74.255745 98.591904,74.114029 99.168983,73.972321 
z"/>
<path fill="#1F5765" opacity="1.000000" stroke="none" 
	d="
M99.177994,73.713867 
	C98.591904,74.114029 98.014832,74.255745 97.190094,74.559601 
	C91.543434,75.775681 86.144432,76.829636 80.124939,78.020576 
	C79.148888,78.256828 78.925385,78.485298 78.833939,78.842979 
	C78.833939,78.842979 78.901039,78.794250 78.482819,78.826675 
	C74.108040,80.107834 70.151466,81.356575 66.142090,82.252945 
	C66.059174,81.664970 66.029068,81.429352 66.329124,81.079361 
	C69.435486,78.643440 72.211685,76.321877 75.252411,74.230209 
	C83.332977,73.969505 91.149002,73.478897 98.965034,72.988297 
	C99.039032,73.144005 99.113022,73.299721 99.177994,73.713867 
z"/>
<path fill="#77B6C2" opacity="1.000000" stroke="none" 
	d="
M66.194893,82.605316 
	C70.151466,81.356575 74.108040,80.107834 78.441597,78.831299 
	C76.932358,84.066711 72.033638,87.687004 66.516075,87.998268 
	C64.208282,88.128448 61.910290,88.432327 59.207329,88.784027 
	C58.806816,88.910805 58.834770,88.436462 59.007431,87.926376 
	C61.518360,85.812630 63.856628,84.208969 66.194893,82.605316 
z"/>
<path fill="#77B6C2" opacity="1.000000" stroke="none" 
	d="
M79.064896,78.800850 
	C78.925385,78.485298 79.148888,78.256828 79.753738,78.158279 
	C79.825577,78.427605 79.589859,78.627518 79.064896,78.800850 
z"/>
<path fill="#1F6071" opacity="1.000000" stroke="none" 
	d="
M337.750702,83.111801 
	C343.121979,83.129860 348.163116,83.239426 353.546204,83.558044 
	C349.841217,87.900101 346.035004,92.313400 341.663574,96.068787 
	C338.690826,98.622604 334.863770,100.929619 331.027588,97.267670 
	C328.515381,94.869560 329.774597,89.956635 333.569183,86.347694 
	C334.766632,85.208801 336.132019,84.246460 337.750702,83.111801 
z"/>
<path fill="#78BFCC" opacity="1.000000" stroke="none" 
	d="
M349.389587,72.713348 
	C349.206329,73.067223 349.023102,73.421104 348.574005,73.920090 
	C343.182434,74.049019 338.056671,74.032829 332.094177,74.029037 
	C330.177734,74.845856 328.627167,75.419014 328.098999,76.494354 
	C325.682465,81.414452 322.148254,83.070625 316.995331,81.000946 
	C317.308014,80.505051 317.620728,80.009155 318.281036,79.040649 
	C320.397675,76.754318 322.166718,74.940605 324.306458,73.109299 
	C325.820282,72.797806 326.963470,72.503906 328.414093,72.179779 
	C329.128540,72.089180 329.535492,72.028801 329.942474,71.968430 
	C330.121857,71.969238 330.301208,71.970047 331.070435,72.247215 
	C337.570099,72.586838 343.479828,72.650093 349.389587,72.713348 
z"/>
<path fill="#87C8D4" opacity="1.000000" stroke="none" 
	d="
M316.713684,81.121384 
	C322.148254,83.070625 325.682465,81.414452 328.098999,76.494354 
	C328.627167,75.419014 330.177734,74.845856 331.626587,74.037086 
	C328.400848,84.821762 323.614777,87.386826 314.327576,83.152237 
	C314.801300,82.404388 315.616638,81.823097 316.713684,81.121384 
z"/>
<path fill="#E7EDEE" opacity="1.000000" stroke="none" 
	d="
M323.935730,73.126892 
	C322.166718,74.940605 320.397675,76.754318 318.351746,78.753662 
	C316.323700,77.533432 314.572571,76.127571 312.815765,74.025131 
	C312.664825,72.654236 312.519531,71.979927 312.533966,71.098518 
	C312.656036,70.548767 312.618408,70.206108 312.669678,69.493874 
	C312.701752,65.797997 312.644867,62.471710 312.660461,58.675789 
	C312.659332,56.639961 312.585785,55.073757 312.517212,53.614227 
	C307.456085,52.463638 300.656067,55.412918 300.551270,46.908348 
	C301.816589,45.625095 303.081909,44.341839 305.133118,42.992199 
	C309.444031,43.290184 312.969055,43.654552 316.160706,44.309952 
	C315.497314,54.484070 315.117279,64.366188 314.926117,74.251961 
	C314.909668,75.102585 316.331635,76.787544 316.763428,76.688011 
	C318.022614,76.397758 319.526337,75.650734 320.168884,74.610214 
	C320.874939,73.466774 320.908081,71.799438 320.924835,70.356789 
	C321.013580,62.705559 321.024323,55.053139 321.001068,47.401321 
	C320.998657,46.613071 320.592102,45.826050 320.373077,45.038456 
	C319.152802,46.808552 318.923218,48.502735 318.912354,50.198318 
	C318.869598,56.852497 318.961853,63.508312 318.841827,70.160591 
	C318.817139,71.529533 318.095428,72.885895 317.694977,74.248055 
	C316.979340,74.123611 316.263702,73.999168 315.548035,73.874725 
	C316.019287,63.914059 316.490509,53.953392 317.399597,44.062752 
	C320.268463,43.770042 322.688782,43.237961 325.132996,43.083309 
	C329.031616,42.836636 333.321991,41.889061 335.119751,47.395329 
	C333.986420,55.392815 327.489807,52.094608 322.660614,53.575958 
	C323.087616,60.122871 323.511688,66.624886 323.935730,73.126892 
M307.556091,51.116467 
	C309.285431,50.940964 311.014771,50.765461 312.744080,50.589958 
	C312.707672,50.206093 312.671234,49.822231 312.634796,49.438366 
	C310.080231,49.143864 307.525665,48.849361 304.971130,48.554859 
	C304.984039,48.175827 304.996948,47.796795 305.009857,47.417759 
	C307.659576,47.081501 310.309296,46.745243 312.959015,46.408985 
	C312.923676,45.908241 312.888306,45.407501 312.852936,44.906757 
	C310.817749,44.906757 308.693359,44.547493 306.776245,45.023266 
	C305.308350,45.387550 304.102264,46.806774 302.779724,47.756786 
	C304.080872,48.875004 305.382050,49.993221 307.556091,51.116467 
M330.897217,50.944347 
	C331.346222,49.330521 332.644501,46.746975 332.098724,46.268970 
	C329.595215,44.076385 326.685699,44.297367 323.518341,46.484043 
	C326.249359,46.919098 328.393219,47.260612 330.537079,47.602127 
	C330.477875,47.986053 330.418671,48.369980 330.359467,48.753906 
	C327.927399,48.954231 325.495300,49.154552 323.063232,49.354874 
	C323.079926,49.930767 323.096649,50.506657 323.113342,51.082550 
	C325.422455,51.082550 327.731537,51.082550 330.897217,50.944347 
z"/>
<path fill="#1D5969" opacity="1.000000" stroke="none" 
	d="
M335.168488,47.007889 
	C333.321991,41.889061 329.031616,42.836636 325.132996,43.083309 
	C322.688782,43.237961 320.268463,43.770042 317.283905,44.085388 
	C316.730408,44.037998 316.494080,44.018921 316.494080,44.018921 
	C312.969055,43.654552 309.444031,43.290184 305.461853,42.872219 
	C307.457123,41.560410 309.866547,39.333176 312.369934,39.222027 
	C320.537567,38.859386 328.748962,39.095512 336.919495,39.541325 
	C338.386017,39.621338 340.250916,41.533772 341.020691,43.059803 
	C342.111694,45.222748 342.356659,47.812435 342.982178,50.613731 
	C340.448517,53.774773 337.895905,56.541824 334.944550,59.868668 
	C334.049652,63.331078 333.553528,66.233688 333.057404,69.136292 
	C332.086243,69.884285 331.115082,70.632278 330.043213,71.674355 
	C329.535492,72.028801 329.128540,72.089180 328.242493,71.789352 
	C326.073273,65.462852 326.149994,60.125866 332.388672,56.524426 
	C334.039856,55.571243 335.485291,54.033546 336.621063,52.470562 
	C338.213409,50.279205 338.213257,48.145611 335.168488,47.007889 
z"/>
<path fill="#1C5564" opacity="1.000000" stroke="none" 
	d="
M300.315125,46.557816 
	C300.656067,55.412918 307.456085,52.463638 312.517212,53.614227 
	C312.585785,55.073757 312.659332,56.639961 312.249146,58.632561 
	C309.937195,58.335629 308.111023,57.607189 306.280334,56.890186 
	C303.527893,55.812176 300.429047,57.937183 300.537170,60.880173 
	C300.585571,62.197861 300.819702,63.508728 300.588806,64.891769 
	C298.457489,65.326553 296.706909,65.692261 294.956329,66.057968 
	C294.629974,59.376137 294.303619,52.694298 293.934937,45.605095 
	C295.954742,45.534241 298.016846,45.870758 300.315125,46.557816 
z"/>
<path fill="#1C5564" opacity="1.000000" stroke="none" 
	d="
M312.580750,69.863457 
	C312.618408,70.206108 312.656036,70.548767 312.425049,71.537338 
	C312.074219,72.776314 311.991974,73.369377 311.909760,73.962440 
	C306.187958,73.626610 300.637512,73.664345 297.582275,80.643112 
	C289.039612,80.997932 281.025055,81.002312 273.010468,81.006699 
	C272.561157,81.005882 272.111847,81.005066 270.996002,81.005539 
	C269.889862,81.007294 269.450226,81.007767 269.010620,81.008240 
	C268.482239,80.851646 267.953827,80.695045 267.501953,80.256149 
	C268.071381,79.665535 268.564362,79.357224 269.454407,79.010727 
	C274.550171,79.529228 277.314911,77.069725 279.481384,73.055161 
	C281.209747,73.080208 282.538574,73.104149 283.867432,73.128098 
	C284.326172,76.406921 285.914948,78.987984 289.447479,78.758751 
	C293.190521,78.515831 294.552032,75.708092 294.512695,72.160500 
	C294.503662,71.344627 294.606110,70.527527 295.186829,69.275482 
	C297.812836,68.337624 299.909271,67.835274 302.012268,67.780151 
	C303.112061,69.142265 304.171326,70.770386 305.305511,70.824417 
	C307.709900,70.938957 310.153320,70.232986 312.580750,69.863457 
z"/>
<path fill="#87C8D4" opacity="1.000000" stroke="none" 
	d="
M208.353531,81.989761 
	C207.947815,81.972801 208.058777,81.613243 208.515961,81.419113 
	C210.860916,80.773849 212.748657,80.322708 214.590363,79.925125 
	C214.544312,79.978676 214.403427,79.989281 214.775589,79.967903 
	C215.396133,79.939232 215.644516,79.931938 216.163971,79.962219 
	C216.616394,80.019348 216.797760,80.038895 217.081451,80.404846 
	C217.917557,81.367760 218.560791,82.327667 219.398880,82.548676 
	C230.055237,85.358780 240.214264,84.870560 249.490509,77.662399 
	C250.126007,77.440384 250.530533,77.240509 251.184784,76.856651 
	C251.690018,76.349983 251.945496,76.027298 252.428864,75.885239 
	C253.119720,76.381599 253.582672,76.697327 254.016754,77.010757 
	C253.987885,77.008461 254.004379,76.952919 253.965942,77.216019 
	C253.942932,77.655708 253.958344,77.832298 253.795685,78.241211 
	C255.738007,79.970512 257.858429,81.467499 259.978851,82.964485 
	C258.829102,83.709099 257.679352,84.453720 256.268341,85.290512 
	C251.102890,83.339615 246.526657,84.390190 241.342926,85.235245 
	C232.033051,86.752937 222.063858,88.502953 213.041275,82.821167 
	C211.896805,82.100471 210.200104,82.256737 208.353531,81.989761 
z"/>
<path fill="#77B6C2" opacity="1.000000" stroke="none" 
	d="
M260.355774,82.955162 
	C257.858429,81.467499 255.738007,79.970512 254.037445,78.159836 
	C254.306305,77.548401 254.155350,77.250656 254.004379,76.952919 
	C254.004379,76.952919 253.987885,77.008461 254.122681,76.614105 
	C254.210419,75.134422 254.163361,74.049088 254.353119,72.850922 
	C255.053162,72.491676 255.516373,72.245277 256.052368,72.369751 
	C256.515076,77.409859 259.192535,79.244507 263.695129,78.977379 
	C265.474823,78.871788 267.269470,79.017570 269.057312,79.048904 
	C268.564362,79.357224 268.071381,79.665535 267.296082,80.068008 
	C264.920074,81.090065 262.826355,82.017952 260.355774,82.955162 
z"/>
<path fill="#226476" opacity="1.000000" stroke="none" 
	d="
M273.336975,81.260345 
	C281.025055,81.002312 289.039612,80.997932 297.521545,80.990280 
	C302.430481,80.987007 306.872040,80.987007 311.313599,80.987007 
	C311.314117,81.162674 311.314636,81.338333 311.315155,81.514000 
	C298.764587,81.514000 286.214020,81.514000 273.336975,81.260345 
z"/>
<path fill="#226476" opacity="1.000000" stroke="none" 
	d="
M269.172302,81.193817 
	C269.450226,81.007767 269.889862,81.007294 270.659027,81.007797 
	C270.437042,81.132309 269.885498,81.255852 269.172302,81.193817 
z"/>
<path fill="#276271" opacity="1.000000" stroke="none" 
	d="
M312.086578,73.985321 
	C311.991974,73.369377 312.074219,72.776314 312.265381,71.744438 
	C312.519531,71.979927 312.664825,72.654236 312.714966,73.674454 
	C312.619812,74.020355 312.263397,74.008202 312.086578,73.985321 
z"/>
<path fill="#87C8D4" opacity="1.000000" stroke="none" 
	d="
M254.282562,86.771980 
	C254.210556,86.548935 254.432022,86.330719 254.919250,86.062332 
	C255.022842,86.288437 254.819855,86.543320 254.282562,86.771980 
z"/>
<path fill="#1E5C6C" opacity="1.000000" stroke="none" 
	d="
M205.773376,43.769516 
	C205.685303,44.412136 205.367844,44.820000 204.583069,45.532051 
	C203.701859,45.970512 203.287994,46.104782 202.556061,46.065826 
	C196.306625,40.920895 189.225632,43.572975 182.644302,42.986782 
	C178.004028,42.573471 176.052765,45.079750 176.083130,49.569176 
	C176.120010,55.022655 176.010620,60.477119 175.687805,66.092834 
	C174.620163,66.540466 173.829224,66.826416 172.875397,66.806915 
	C170.171143,61.932537 167.414658,57.466652 165.160492,52.760174 
	C163.530792,49.357502 162.248474,45.983212 157.425415,45.809212 
	C155.775452,44.683659 154.388977,43.741928 153.002487,42.800198 
	C153.690048,39.744110 155.656967,39.611275 157.840485,40.975018 
	C161.998581,43.572018 166.030609,46.370922 169.351868,48.578720 
	C172.118591,45.585705 174.882309,42.593922 177.651779,39.607464 
	C177.760941,39.489761 177.918457,39.356224 178.064362,39.341984 
	C185.283783,38.637287 192.495560,37.724060 199.732224,37.434654 
	C201.205368,37.375740 202.772629,39.669662 204.647644,40.939548 
	C205.180511,41.845016 205.362259,42.689892 205.773376,43.769516 
z"/>
<path fill="#1F5F6F" opacity="1.000000" stroke="none" 
	d="
M166.516022,24.476515 
	C167.677872,24.842949 168.529068,25.378338 169.380264,25.913727 
	C168.386307,26.520582 167.392365,27.127438 166.398407,27.734295 
	C166.334061,26.704689 166.269714,25.675079 166.516022,24.476515 
z"/>
<path fill="#1E5867" opacity="1.000000" stroke="none" 
	d="
M214.636414,79.871567 
	C212.748657,80.322708 210.860916,80.773849 208.552124,81.234482 
	C204.754883,81.163704 201.378738,81.080948 198.002457,81.003761 
	C193.566437,80.902351 189.130310,80.805336 183.925568,80.848740 
	C181.442215,80.991432 179.727524,80.991821 178.009109,80.647980 
	C178.008499,79.615158 178.011581,78.926552 178.267746,78.123978 
	C178.723434,77.710052 178.926025,77.410095 179.468781,77.166458 
	C181.862061,77.240250 184.208405,76.615868 185.913589,77.394905 
	C191.141464,79.783363 195.986572,79.487366 201.071289,76.491043 
	C201.964783,75.646027 202.615097,74.954414 203.458771,74.220039 
	C203.652115,74.177284 203.986557,73.965149 204.432434,73.951538 
	C207.253815,73.948151 209.629318,73.958366 212.061813,74.363953 
	C212.768585,75.728149 213.498550,76.654709 214.039154,77.681023 
	C214.383484,78.334694 214.446991,79.136292 214.636414,79.871567 
z"/>
<path fill="#246171" opacity="1.000000" stroke="none" 
	d="
M150.051895,102.291473 
	C146.246933,103.201134 142.843246,104.364815 139.352280,104.762856 
	C138.422241,104.868896 136.352280,102.660797 136.308762,101.460663 
	C136.160690,97.376427 143.094330,92.394974 148.460403,93.099762 
	C146.762604,94.381706 145.501801,95.190300 144.418213,96.190834 
	C143.255630,97.264336 142.259689,98.518280 141.191025,99.693481 
	C141.401703,100.067833 141.612381,100.442192 141.823059,100.816551 
	C143.049561,100.439651 144.295929,100.116623 145.497742,99.672897 
	C147.183044,99.050652 148.861359,97.745445 150.494781,97.817535 
	C152.465698,97.904495 154.626648,98.818451 156.191223,100.035416 
	C156.699249,100.430565 155.590408,102.904442 155.221100,104.427513 
	C153.620895,103.704529 152.020676,102.981552 150.051895,102.291473 
z"/>
<path fill="#246171" opacity="1.000000" stroke="none" 
	d="
M152.926544,83.652985 
	C153.757462,83.121132 154.561264,82.986946 155.732956,83.236626 
	C157.406693,86.994530 159.419678,87.732803 162.381256,85.398590 
	C163.514893,84.505096 164.791443,83.792915 166.378159,83.001289 
	C167.504257,83.008263 168.255051,83.012047 169.005859,83.015839 
	C167.654739,84.574097 166.412308,86.246414 164.925995,87.662804 
	C162.900818,89.592712 160.885345,91.228516 163.547867,94.257996 
	C164.140762,94.932610 163.484787,96.704826 163.403839,97.971687 
	C162.226822,97.572098 160.701263,97.506012 159.939056,96.709488 
	C157.776718,94.449783 155.678452,92.043594 154.051147,89.390717 
	C153.152832,87.926239 153.250656,85.850716 152.926544,83.652985 
z"/>
<path fill="#396A76" opacity="1.000000" stroke="none" 
	d="
M169.337036,83.013077 
	C168.255051,83.012047 167.504257,83.008263 166.559265,82.759056 
	C166.905106,81.709488 167.445129,80.905350 168.280197,80.020615 
	C168.979630,79.892578 169.384018,79.845131 170.103943,80.075325 
	C172.950592,80.566048 175.481705,80.779129 178.012817,80.992210 
	C179.727524,80.991821 181.442215,80.991432 183.586395,80.992287 
	C181.208679,81.490425 178.401474,81.987320 174.889374,82.736115 
	C173.120682,83.000313 172.056885,83.012596 170.993088,83.024887 
	C170.551468,83.020035 170.109848,83.015175 169.337036,83.013077 
z"/>
<path fill="#246171" opacity="1.000000" stroke="none" 
	d="
M171.050888,83.376160 
	C172.056885,83.012596 173.120682,83.000313 174.582550,82.983429 
	C175.185730,84.486427 175.390823,85.994034 175.595917,87.501633 
	C174.100174,86.243568 172.604431,84.985497 171.050888,83.376160 
z"/>
<path fill="#206172" opacity="1.000000" stroke="none" 
	d="
M333.401550,69.050308 
	C333.553528,66.233688 334.049652,63.331078 334.838379,60.175438 
	C341.837158,58.520844 348.543304,57.119274 355.249451,55.717705 
	C355.388733,56.036224 355.528046,56.354744 355.667358,56.673264 
	C348.360138,60.770283 341.052887,64.867302 333.401550,69.050308 
z"/>
<path fill="#4A9BB3" opacity="1.000000" stroke="none" 
	d="
M349.397705,72.679359 
	C343.479828,72.650093 337.570099,72.586838 331.338806,72.266312 
	C336.825928,72.087013 342.634583,72.164986 348.928375,72.409424 
	C349.413513,72.575897 349.405823,72.645370 349.397705,72.679359 
z"/>
<path fill="#1C5564" opacity="1.000000" stroke="none" 
	d="
M66.142090,82.252945 
	C63.856628,84.208969 61.518360,85.812630 58.973648,87.691208 
	C49.641159,89.670464 43.030052,84.859070 36.905930,79.220100 
	C35.457302,77.886238 34.950825,75.529175 33.991932,73.258553 
	C34.169231,72.843323 34.365559,72.812332 34.852798,72.720428 
	C36.545006,73.935677 37.820881,75.395966 39.371861,76.452354 
	C43.495850,79.261230 47.738445,81.895973 52.789452,85.151398 
	C52.850414,78.677925 54.982403,73.022362 47.650978,70.660744 
	C46.575668,70.314354 45.884396,68.775764 45.096230,67.205902 
	C45.461536,66.336853 45.746044,66.050705 46.341087,65.739777 
	C47.437458,65.445580 48.223293,65.176163 49.333748,64.929657 
	C50.091385,64.931961 50.524399,64.911354 50.982639,65.278305 
	C51.660229,69.440041 53.741116,71.310158 57.724937,71.037384 
	C59.482960,70.917007 61.273640,71.273544 62.847458,71.649277 
	C62.441772,71.921844 62.238121,71.958710 61.836510,72.055946 
	C61.382401,72.239441 61.180080,72.422150 60.643887,72.844208 
	C55.262878,75.514038 59.339146,79.618500 57.569469,83.862198 
	C61.145039,82.730293 63.571995,81.962006 65.998955,81.193726 
	C66.029068,81.429352 66.059174,81.664970 66.142090,82.252945 
z"/>
<path fill="#E8EEF0" opacity="1.000000" stroke="none" 
	d="
M163.053345,78.777740 
	C161.888412,77.326088 160.723480,75.874435 159.261322,73.830399 
	C158.315872,71.893044 157.909653,70.333725 156.957123,69.258331 
	C155.812653,67.966278 154.204254,66.261414 152.794403,66.259239 
	C151.377106,66.257057 149.568558,67.863686 148.633179,69.241646 
	C147.373611,71.097168 146.786057,73.408859 145.632767,75.695297 
	C145.138779,76.240471 144.922119,76.615112 144.403885,77.141296 
	C140.818420,80.190842 138.302261,78.959503 135.964539,75.557312 
	C135.149048,74.828140 134.511185,74.354523 134.014099,73.569092 
	C135.412811,71.172745 136.670746,69.088226 137.928680,67.003708 
	C139.241714,66.230347 140.554764,65.456993 142.498383,64.414047 
	C150.343552,63.205769 157.993073,65.863785 164.600922,61.179653 
	C166.221939,64.322098 167.661484,67.112793 169.200287,70.269791 
	C170.678009,76.526474 169.049164,78.649612 163.053345,78.777740 
M143.588120,74.985939 
	C144.877304,72.139404 146.166489,69.292870 147.455688,66.446342 
	C146.970901,66.200684 146.486130,65.955032 146.001358,65.709373 
	C144.384552,68.494591 142.767746,71.279816 141.154221,74.059357 
	C140.177811,73.531853 139.368530,73.094650 138.559250,72.657440 
	C138.286163,73.189903 137.655594,73.888474 137.810577,74.222054 
	C138.194702,75.048828 138.873810,76.235146 139.551193,76.317574 
	C140.686310,76.455704 141.912247,75.847458 143.588120,74.985939 
z"/>
<path fill="#1C5564" opacity="1.000000" stroke="none" 
	d="
M169.101044,69.903481 
	C167.661484,67.112793 166.221939,64.322098 164.600922,61.179653 
	C157.993073,65.863785 150.343552,63.205769 142.675262,64.132820 
	C141.854523,63.611710 141.487488,63.102242 141.533203,62.319557 
	C147.778702,61.857693 153.611465,61.669048 159.444214,61.480404 
	C159.412384,60.983547 159.380554,60.486694 159.348709,59.989838 
	C153.898483,59.989838 148.448242,59.989838 142.998001,59.989838 
	C142.995499,59.570667 142.992996,59.151501 143.444275,58.360699 
	C145.543198,58.003368 147.188553,58.004375 148.833389,58.034119 
	C159.941666,58.235001 161.601868,55.979904 157.688904,45.993034 
	C162.248474,45.983212 163.530792,49.357502 165.160492,52.760174 
	C167.414658,57.466652 170.171143,61.932537 172.752075,67.069176 
	C172.202988,68.137558 171.614304,68.638214 170.762299,69.159508 
	C170.032974,69.421257 169.567017,69.662369 169.101044,69.903481 
z"/>
<path fill="#1E5867" opacity="1.000000" stroke="none" 
	d="
M137.529053,67.023560 
	C136.670746,69.088226 135.412811,71.172745 133.698364,73.612930 
	C132.461014,73.674629 131.680161,73.380653 130.899307,73.086678 
	C125.516998,65.824554 117.559067,69.224434 109.964996,68.153030 
	C109.964996,64.818901 109.964996,61.422443 110.032410,57.572437 
	C112.492294,56.117371 114.884750,55.115845 117.624481,54.052475 
	C117.749634,64.966621 117.729874,65.074890 128.880417,67.109924 
	C131.537537,67.594864 134.374939,67.091957 137.529053,67.023560 
z"/>
<path fill="#E8EEF0" opacity="1.000000" stroke="none" 
	d="
M157.425415,45.809212 
	C161.601868,55.979904 159.941666,58.235001 148.833389,58.034119 
	C147.188553,58.004375 145.543198,58.003368 143.435883,58.046432 
	C145.423920,52.657524 145.288406,45.626106 152.632141,42.876442 
	C154.388977,43.741928 155.775452,44.683659 157.425415,45.809212 
M149.297516,47.733727 
	C148.185516,50.293926 147.073502,52.854130 145.961502,55.414333 
	C146.417435,55.646255 146.873367,55.878178 147.329285,56.110100 
	C149.061493,53.189224 150.793686,50.268349 152.843781,46.811428 
	C154.508423,49.744129 155.753159,51.937065 156.997894,54.130001 
	C157.432388,53.944717 157.866898,53.759430 158.301392,53.574142 
	C157.568481,51.556606 157.042984,49.430603 156.057175,47.545315 
	C154.292465,44.170460 152.061462,43.727673 149.297516,47.733727 
z"/>
<path fill="#E4EDEF" opacity="1.000000" stroke="none" 
	d="
M142.740814,60.136333 
	C148.448242,59.989838 153.898483,59.989838 159.348709,59.989838 
	C159.380554,60.486694 159.412384,60.983547 159.444214,61.480404 
	C153.611465,61.669048 147.778702,61.857693 141.481079,62.001137 
	C141.505371,61.398239 141.994507,60.840534 142.740814,60.136333 
z"/>
<path fill="#206172" opacity="1.000000" stroke="none" 
	d="
M210.661530,25.896938 
	C209.282166,26.576633 207.948944,26.904995 206.615738,27.233356 
	C206.686539,26.496918 206.757339,25.760481 206.828140,25.024042 
	C208.121323,25.197897 209.414505,25.371752 210.661530,25.896938 
z"/>
<path fill="#6C9CA5" opacity="1.000000" stroke="none" 
	d="
M46.030548,65.764549 
	C45.746044,66.050705 45.461536,66.336853 45.001312,66.871574 
	C40.288754,57.209423 45.900005,48.250202 56.720161,48.868336 
	C56.528687,50.292919 56.247688,51.120735 55.654114,52.001228 
	C54.554138,52.362724 53.766739,52.671539 52.688110,53.120415 
	C51.871719,54.485237 51.346558,55.710007 50.715813,57.133812 
	C50.437244,57.584187 50.221333,57.790634 49.659698,58.023186 
	C48.888588,58.719109 48.420269,59.344036 47.607750,60.087486 
	C46.852547,62.058853 46.441547,63.911701 46.030548,65.764549 
z"/>
<path fill="#73A9B3" opacity="1.000000" stroke="none" 
	d="
M55.966694,51.948551 
	C56.247688,51.120735 56.528687,50.292919 56.946480,49.164280 
	C57.820026,48.908920 58.556767,48.954384 59.748421,49.163780 
	C60.203327,49.327713 60.590702,49.430893 60.590702,49.430893 
	C60.590702,49.430893 60.944103,49.199097 60.944103,49.199097 
	C62.081299,49.879925 63.218494,50.560753 64.153038,51.557899 
	C62.964291,52.240276 61.978199,52.606335 60.593853,52.977196 
	C59.133156,52.978622 58.070705,52.975239 56.870441,52.767982 
	C56.514084,52.313179 56.258774,52.107994 55.966694,51.948551 
z"/>
<path fill="#7AB5BF" opacity="1.000000" stroke="none" 
	d="
M60.992104,52.972389 
	C61.978199,52.606335 62.964291,52.240276 64.360863,51.824608 
	C65.803192,53.296093 66.835045,54.817200 67.660507,56.678738 
	C67.454124,57.019173 66.976868,57.040318 66.649612,57.019817 
	C65.551872,56.663418 64.781395,56.327518 63.937363,55.680138 
	C62.906570,54.569904 61.949337,53.771145 60.992104,52.972389 
z"/>
<path fill="#84C0CB" opacity="1.000000" stroke="none" 
	d="
M66.976868,57.040318 
	C66.976868,57.040318 67.454124,57.019173 67.692635,57.007256 
	C68.427643,57.402485 68.924141,57.809631 69.631729,58.317669 
	C69.890427,59.275627 69.938034,60.132694 69.613586,61.481697 
	C68.492317,61.941055 67.743103,61.908485 66.995827,61.472511 
	C66.990799,59.726181 66.983833,58.383247 66.976868,57.040318 
z"/>
<path fill="#6C9CA5" opacity="1.000000" stroke="none" 
	d="
M60.721748,49.108028 
	C60.944103,49.199097 60.590702,49.430893 60.590702,49.430893 
	C60.590702,49.430893 60.203327,49.327713 60.114502,49.212746 
	C60.025677,49.097778 60.499393,49.016960 60.721748,49.108028 
z"/>
<path fill="#84C0CB" opacity="1.000000" stroke="none" 
	d="
M136.142181,75.812874 
	C138.302261,78.959503 140.818420,80.190842 144.688324,77.219711 
	C145.470703,77.158440 145.667053,77.170296 145.897705,77.164520 
	C145.931976,77.146896 145.866989,77.105423 145.979202,77.261971 
	C146.091415,77.418518 146.458282,77.527382 146.458282,77.527382 
	C146.458282,77.527382 146.822128,77.409050 147.175354,77.508118 
	C148.013046,77.566521 148.497543,77.525864 149.229858,77.616714 
	C149.648621,77.824257 149.819519,77.900276 149.990417,77.976303 
	C147.907867,82.276062 144.452118,82.830971 140.479950,81.168343 
	C136.858521,79.652534 133.718674,79.754646 130.149857,81.768265 
	C121.729073,86.519501 108.791168,83.966705 101.131088,76.219124 
	C101.473198,72.745361 101.991875,69.574249 102.510559,66.403137 
	C102.870728,66.382607 103.230904,66.362068 103.591072,66.341530 
	C103.737625,68.596146 103.628174,70.908073 104.115906,73.086296 
	C104.473000,74.681114 105.614594,76.100281 106.979172,77.342018 
	C107.797951,77.102547 108.044075,77.118797 108.290207,77.135048 
	C108.534775,77.112312 108.707314,77.213081 108.958496,77.971077 
	C111.314873,79.335350 113.459106,80.585922 115.737541,80.919304 
	C123.175499,82.007607 130.012894,80.203278 136.142181,75.812874 
z"/>
<path fill="#77B6C2" opacity="1.000000" stroke="none" 
	d="
M135.964539,75.557312 
	C130.012894,80.203278 123.175499,82.007607 115.737541,80.919304 
	C113.459106,80.585922 111.314873,79.335350 108.969437,78.129440 
	C114.056084,78.133781 119.326988,79.058449 124.487907,78.636818 
	C126.688744,78.457024 128.659836,75.464973 130.817322,73.418777 
	C131.680161,73.380653 132.461014,73.674629 133.557587,73.924759 
	C134.511185,74.354523 135.149048,74.828140 135.964539,75.557312 
z"/>
<path fill="#89B5BD" opacity="1.000000" stroke="none" 
	d="
M118.899429,74.081467 
	C121.307976,74.073982 123.262039,74.073982 125.380478,74.073982 
	C123.446533,77.464668 115.381187,77.995293 109.427040,74.592285 
	C113.233482,74.379829 115.839211,74.234398 118.899429,74.081467 
z"/>
<path fill="#31626F" opacity="1.000000" stroke="none" 
	d="
M105.534348,59.075687 
	C106.312111,58.886993 106.737053,58.954678 107.475403,59.100204 
	C107.815926,63.771526 107.843040,68.365005 107.601807,73.336807 
	C106.930031,73.464539 106.526619,73.213936 106.123207,72.963341 
	C105.809319,68.419586 105.495430,63.875828 105.534348,59.075687 
z"/>
<path fill="#31626F" opacity="1.000000" stroke="none" 
	d="
M116.110611,72.913773 
	C113.794617,72.913986 111.953514,72.913986 110.112404,72.913986 
	C110.120293,72.360619 110.128174,71.807259 110.136063,71.253891 
	C115.462471,71.253891 120.788887,71.253891 126.115295,71.253891 
	C126.136330,71.807114 126.157364,72.360336 126.178406,72.913559 
	C122.980766,72.913559 119.783127,72.913559 116.110611,72.913773 
z"/>
<path fill="#77B6C2" opacity="1.000000" stroke="none" 
	d="
M105.966347,73.246948 
	C106.526619,73.213936 106.930031,73.464539 107.558609,73.791969 
	C107.929863,74.680763 108.075958,75.492729 108.256134,76.719864 
	C108.044075,77.118797 107.797951,77.102547 107.181534,77.083221 
	C106.477333,75.896950 106.143410,74.713753 105.966347,73.246948 
z"/>
<path fill="#235E6D" opacity="1.000000" stroke="none" 
	d="
M66.993889,61.875916 
	C67.743103,61.908485 68.492317,61.941055 69.611740,61.905567 
	C72.698463,61.901417 75.414993,61.965321 78.559090,62.349579 
	C78.827682,63.097519 78.668701,63.525108 78.023544,63.917301 
	C72.536919,63.392437 67.746811,63.217354 65.684273,69.330681 
	C65.384216,70.220047 63.955788,70.728729 63.049492,71.413567 
	C61.273640,71.273544 59.482960,70.917007 57.724937,71.037384 
	C53.741116,71.310158 51.660229,69.440041 51.018497,65.084358 
	C51.029133,64.502853 51.118095,64.117424 51.110573,64.084076 
	C51.103050,64.050720 51.034985,64.057243 51.445969,64.057762 
	C56.902596,63.330826 61.948242,62.603371 66.993889,61.875916 
z"/>
<path fill="#1C5564" opacity="1.000000" stroke="none" 
	d="
M78.509720,63.952698 
	C78.668701,63.525108 78.827682,63.097519 79.003357,62.439960 
	C79.761803,62.221519 80.503555,62.233047 81.606842,62.333260 
	C82.643402,65.305191 83.318405,68.188438 83.607819,71.491440 
	C81.088272,71.575584 78.954323,71.239983 76.859512,70.510727 
	C77.435669,68.062286 77.972694,66.007492 78.509720,63.952698 
z"/>
<path fill="#0A3C49" opacity="1.000000" stroke="none" 
	d="
M76.820374,70.904388 
	C78.954323,71.239983 81.088272,71.575584 83.634750,71.866196 
	C85.101685,71.862610 86.156097,71.904015 87.606148,71.914902 
	C91.345222,71.924355 94.688660,71.964317 98.486313,72.009201 
	C98.992592,72.175285 99.044670,72.336464 99.030884,72.742966 
	C91.149002,73.478897 83.332977,73.969505 75.296997,73.925362 
	C75.658157,72.561867 76.239265,71.733131 76.820374,70.904388 
z"/>
<path fill="#F3F8F9" opacity="1.000000" stroke="none" 
	d="
M214.590363,79.925117 
	C214.446991,79.136292 214.383484,78.334694 214.039154,77.681023 
	C213.498550,76.654709 212.768585,75.728149 212.108765,73.946960 
	C211.552475,69.279083 212.105011,65.890633 216.479156,63.951710 
	C223.063690,63.970276 229.192184,64.161537 235.290802,63.819653 
	C236.781906,63.736065 238.175125,61.906151 239.613358,60.879147 
	C238.190384,59.890297 236.798355,58.106544 235.339096,58.049736 
	C228.907333,57.799347 222.456207,58.046806 215.699066,58.090485 
	C214.754395,58.519871 214.122757,58.972679 213.139709,59.438148 
	C212.456696,55.978054 212.125107,52.505302 211.793503,49.032547 
	C212.275986,44.545116 214.817047,42.753609 219.256973,42.914017 
	C224.414017,43.100338 229.588776,42.825024 234.742920,43.048405 
	C236.623550,43.129906 238.467041,44.068062 240.700500,45.155350 
	C241.388748,46.797565 241.704010,47.899826 241.845474,49.257607 
	C241.126801,50.384182 240.581924,51.255238 239.681122,52.272846 
	C234.036407,53.212437 228.747604,54.005466 223.458786,54.798500 
	C223.472778,54.974625 223.486755,55.150749 223.500732,55.326870 
	C229.012833,55.842476 234.524933,56.358078 240.191315,57.181019 
	C242.557266,60.697834 241.373962,63.325974 238.476959,65.824387 
	C233.086441,65.910027 228.151825,65.910027 223.217209,65.910027 
	C223.198914,66.642586 223.180634,67.375153 223.162338,68.107712 
	C228.432419,68.354454 233.702484,68.601196 239.231689,69.085411 
	C240.017365,71.513840 241.580765,74.250458 240.792023,75.749237 
	C239.924698,77.397339 236.951050,78.593185 234.792847,78.775421 
	C229.557190,79.217491 224.262222,78.957047 218.673492,78.901146 
	C217.920624,78.796974 217.485413,78.771324 216.846619,78.700546 
	C216.643021,78.655411 216.269043,78.840065 215.754639,78.676483 
	C214.961319,79.005035 214.682373,79.497162 214.403427,79.989281 
	C214.403427,79.989281 214.544312,79.978676 214.590363,79.925117 
M221.137390,69.860092 
	C220.703201,68.572487 220.269028,67.284882 219.834839,65.997284 
	C219.101242,66.250648 218.367645,66.504013 217.634048,66.757378 
	C218.443375,68.789001 219.252716,70.820633 220.988678,72.887856 
	C226.309418,72.937363 231.630157,72.986877 236.515610,73.767769 
	C233.597229,73.987473 230.678864,74.207176 226.867554,74.426216 
	C222.699310,74.211975 218.531052,73.997742 214.362808,73.783508 
	C215.108673,75.194595 216.432999,76.489914 217.937775,76.752930 
	C220.186478,77.146004 222.562195,76.812408 225.810425,76.949463 
	C229.240555,76.915527 232.689774,77.076805 236.090668,76.744080 
	C237.317093,76.624084 238.924759,75.547356 239.419937,74.474167 
	C239.762909,73.730865 238.498993,72.246132 237.047729,70.874161 
	C231.826065,70.773468 226.604401,70.672775 221.137390,69.860092 
M217.216415,47.175789 
	C223.759064,47.137985 230.301727,47.100185 236.843246,47.890415 
	C235.197098,48.260258 233.559860,48.892982 231.903076,48.949100 
	C227.488953,49.098614 223.066422,48.999943 218.172119,48.999943 
	C218.312714,51.677162 218.414093,53.607887 218.515488,55.538609 
	C220.226135,50.419765 224.071335,51.045467 227.675735,51.125984 
	C230.160263,51.181484 232.654709,51.005417 235.131210,51.155506 
	C238.226929,51.343113 239.368698,49.928493 238.729797,46.246597 
	C231.782913,45.863220 224.837875,45.431736 217.886551,45.163929 
	C217.111679,45.134075 216.300934,46.034767 214.885696,46.961243 
	C214.568878,49.789310 214.252060,52.617378 213.935257,55.445446 
	C214.520233,55.499660 215.105209,55.553871 215.690170,55.608086 
	C215.902695,52.834938 216.115204,50.061787 217.216415,47.175789 
z"/>
<path fill="#EAF3F5" opacity="1.000000" stroke="none" 
	d="
M269.454407,79.010727 
	C267.269470,79.017570 265.474823,78.871788 263.695129,78.977379 
	C259.192535,79.244507 256.515076,77.409859 256.080383,71.901978 
	C255.982193,63.716312 255.928711,56.369282 255.926971,48.653488 
	C255.158295,47.250710 254.337845,46.216694 253.517410,45.182678 
	C253.012512,45.802711 252.507614,46.422745 251.993820,47.021564 
	C251.984924,47.000351 252.029480,46.994095 251.604492,46.977142 
	C251.098007,56.987007 251.016525,67.013817 250.935043,77.040634 
	C250.530533,77.240509 250.126007,77.440384 249.390717,77.420822 
	C248.744644,76.792519 248.429352,76.383652 248.070694,75.509338 
	C247.950699,65.702568 247.874100,56.361263 247.797485,47.019958 
	C250.835419,42.104687 253.428665,41.693542 257.850555,46.206673 
	C258.078735,53.837990 258.078735,60.724915 258.078735,67.971306 
	C260.450562,68.164368 262.370453,68.320648 264.290344,68.476929 
	C267.220764,68.470390 270.151215,68.463852 273.683472,68.671539 
	C274.820923,69.015793 275.356537,69.145813 276.083130,69.523514 
	C277.210052,70.865479 278.145935,71.959770 279.081848,73.054062 
	C277.314911,77.069725 274.550171,79.529228 269.454407,79.010727 
M272.068359,70.875565 
	C267.583008,70.875565 263.097656,70.875565 258.612305,70.875565 
	C258.651093,71.543106 258.689911,72.210640 258.728729,72.878181 
	C263.478790,72.878181 268.228851,72.878181 273.273834,73.413681 
	C268.799713,74.078987 264.325592,74.744293 259.851471,75.409599 
	C264.539795,76.343468 269.272400,76.452293 273.988434,76.222176 
	C274.669403,76.188950 275.988647,74.219543 275.758881,73.683342 
	C275.288940,72.586723 273.966827,71.855263 272.068359,70.875565 
z"/>
<path fill="#7CB8C3" opacity="1.000000" stroke="none" 
	d="
M216.012100,63.928093 
	C212.105011,65.890633 211.552475,69.279083 212.051773,73.551582 
	C209.629318,73.958366 207.253815,73.948151 204.554504,73.595718 
	C204.573120,69.907211 204.968994,66.565125 205.233078,63.212658 
	C205.347076,61.765423 204.756836,60.135475 205.230774,58.866497 
	C207.010635,54.100967 205.701691,50.064480 202.874115,46.239052 
	C203.287994,46.104782 203.701859,45.970512 204.428772,45.745567 
	C206.864105,46.731117 208.986389,47.807339 211.451096,48.958054 
	C212.125107,52.505302 212.456696,55.978054 213.319824,59.658791 
	C213.976562,60.005482 214.101776,60.144192 214.049088,60.519569 
	C214.588425,61.240765 215.305664,61.725296 216.019669,62.496284 
	C216.014984,63.164524 216.013550,63.546310 216.012100,63.928093 
z"/>
<path fill="#7FB8C3" opacity="1.000000" stroke="none" 
	d="
M264.290131,68.223335 
	C262.370453,68.320648 260.450562,68.164368 258.078735,67.971306 
	C258.078735,60.724915 258.078735,53.837990 258.081421,46.483917 
	C263.157562,46.501621 263.440735,50.531586 263.938171,54.200424 
	C264.437958,57.886520 264.586395,61.620255 264.961090,65.757629 
	C264.785553,66.778008 264.537720,67.373878 264.290131,68.223335 
z"/>
<path fill="#80BDC8" opacity="1.000000" stroke="none" 
	d="
M247.472504,46.953812 
	C247.874100,56.361263 247.950699,65.702568 247.680969,75.516487 
	C246.557205,75.993881 245.779770,75.998657 245.000641,75.577377 
	C244.665329,67.772858 244.422287,60.388184 243.917313,53.021465 
	C243.822937,51.644775 242.678894,50.340034 242.019272,49.002087 
	C241.704010,47.899826 241.388748,46.797565 241.033249,45.351067 
	C243.044510,45.633774 245.096008,46.260719 247.472504,46.953812 
z"/>
<path fill="#84C0CB" opacity="1.000000" stroke="none" 
	d="
M279.481384,73.055161 
	C278.145935,71.959770 277.210052,70.865479 276.115234,69.296104 
	C275.956299,68.821022 276.001953,68.364525 276.001953,68.364525 
	C278.399078,67.996391 280.796173,67.628258 283.542725,67.078415 
	C283.893219,68.677544 283.894257,70.458382 283.881348,72.683655 
	C282.538574,73.104149 281.209747,73.080208 279.481384,73.055161 
z"/>
<path fill="#7FB8C3" opacity="1.000000" stroke="none" 
	d="
M275.638275,68.330681 
	C276.001953,68.364525 275.956299,68.821022 275.924225,69.048431 
	C275.356537,69.145813 274.820923,69.015793 274.066528,68.717514 
	C274.323334,68.465126 274.798981,68.380981 275.638275,68.330681 
z"/>
<path fill="#BCD1D6" opacity="1.000000" stroke="none" 
	d="
M286.012360,72.025604 
	C286.008575,70.584442 286.004791,69.143288 286.466187,67.316437 
	C287.287140,65.263115 287.853912,63.608643 287.959015,61.925350 
	C288.268616,56.967590 288.395233,51.998413 288.976807,47.128479 
	C289.637909,52.513523 289.924591,57.803349 290.187927,63.094337 
	C290.268402,64.710922 289.895447,66.711037 292.687073,65.646629 
	C292.724945,66.918144 292.762817,68.189651 292.386780,69.769592 
	C291.079773,71.326859 290.186646,72.575691 289.349274,73.746552 
	C288.428162,73.271500 287.220276,72.648552 286.012360,72.025604 
z"/>
<path fill="#4B7884" opacity="1.000000" stroke="none" 
	d="
M292.667603,65.202599 
	C289.895447,66.711037 290.268402,64.710922 290.187927,63.094337 
	C289.924591,57.803349 289.637909,52.513523 288.595642,47.147278 
	C287.578156,47.046638 287.325226,47.021980 287.072266,46.997322 
	C288.258423,46.397495 289.896179,45.012283 290.528442,45.375813 
	C291.562561,45.970383 292.452637,47.680969 292.508636,48.959953 
	C292.738770,54.218121 292.631348,59.491062 292.667603,65.202599 
z"/>
<path fill="#1E5867" opacity="1.000000" stroke="none" 
	d="
M286.769531,47.302185 
	C287.325226,47.021980 287.578156,47.046638 288.212280,47.052505 
	C288.395233,51.998413 288.268616,56.967590 287.959015,61.925350 
	C287.853912,63.608643 287.287140,65.263115 286.513489,66.886383 
	C286.219360,60.430351 286.343079,54.018696 286.769531,47.302185 
z"/>
<path fill="#77B6C2" opacity="1.000000" stroke="none" 
	d="
M302.005676,67.332916 
	C299.909271,67.835274 297.812836,68.337624 295.317078,68.884102 
	C294.894836,68.209145 294.871918,67.490067 294.902649,66.414474 
	C296.706909,65.692261 298.457489,65.326553 300.987671,64.931252 
	C304.171570,64.703094 306.575897,64.504524 308.980225,64.305962 
	C309.003204,64.661484 309.026215,65.017006 309.049194,65.372520 
	C306.701355,66.025986 304.353516,66.679451 302.005676,67.332916 
z"/>
<path fill="#396A76" opacity="1.000000" stroke="none" 
	d="
M285.987244,72.399544 
	C287.220276,72.648552 288.428162,73.271500 289.349274,73.746552 
	C290.186646,72.575691 291.079773,71.326859 292.312622,70.242249 
	C292.644196,71.069252 292.878174,71.877823 292.583099,72.367805 
	C291.654694,73.909515 290.527466,75.331528 289.477234,76.799881 
	C288.305542,75.457748 287.133820,74.115616 285.987244,72.399544 
z"/>
<path fill="#1F5765" opacity="1.000000" stroke="none" 
	d="
M148.982025,77.485207 
	C148.497543,77.525864 148.013046,77.566521 147.030823,77.423103 
	C146.321655,77.141708 146.099625,77.097176 145.866989,77.105423 
	C145.866989,77.105423 145.931976,77.146896 145.926483,76.750023 
	C145.917358,76.077019 145.913727,75.800896 145.910095,75.524765 
	C146.786057,73.408859 147.373611,71.097168 148.633179,69.241646 
	C149.568558,67.863686 151.377106,66.257057 152.794403,66.259239 
	C154.204254,66.261414 155.812653,67.966278 156.957123,69.258331 
	C157.909653,70.333725 158.315872,71.893044 159.043686,73.595558 
	C158.620132,74.286583 158.116989,74.620056 157.011780,74.731903 
	C153.196335,73.660622 150.128265,73.173737 148.982025,77.485207 
z"/>
<path fill="#77B6C2" opacity="1.000000" stroke="none" 
	d="
M169.200287,70.269791 
	C169.567017,69.662369 170.032974,69.421257 170.816238,69.492294 
	C171.815659,72.496979 173.241379,73.602303 175.970764,72.425140 
	C177.060715,74.240631 178.094666,75.675392 179.128632,77.110138 
	C178.926025,77.410095 178.723434,77.710052 177.877777,78.045227 
	C174.752609,78.652863 172.270523,79.225273 169.788422,79.797684 
	C169.384018,79.845131 168.979630,79.892578 167.911865,80.014122 
	C165.822052,80.336739 164.395599,80.585274 162.969147,80.833801 
	C162.987244,80.377716 163.005325,79.921638 163.038391,79.121643 
	C169.049164,78.649612 170.678009,76.526474 169.200287,70.269791 
z"/>
<path fill="#1E5E6F" opacity="1.000000" stroke="none" 
	d="
M162.621979,80.969139 
	C164.395599,80.585274 165.822052,80.336739 167.616821,80.094711 
	C167.445129,80.905350 166.905106,81.709488 166.183960,82.755867 
	C164.791443,83.792915 163.514893,84.505096 162.381256,85.398590 
	C159.419678,87.732803 157.406693,86.994530 156.041229,83.267456 
	C158.079330,82.311119 160.177063,81.707794 162.621979,80.969139 
z"/>
<path fill="#235E6D" opacity="1.000000" stroke="none" 
	d="
M149.229858,77.616714 
	C150.128265,73.173737 153.196335,73.660622 156.702774,74.744400 
	C154.883301,75.892685 152.770767,76.806847 150.324326,77.848648 
	C149.819519,77.900276 149.648621,77.824257 149.229858,77.616714 
z"/>
<path fill="#FBFCFD" opacity="1.000000" stroke="none" 
	d="
M76.859512,70.510735 
	C76.239265,71.733131 75.658157,72.561867 75.032463,73.695465 
	C72.211685,76.321877 69.435486,78.643440 66.329124,81.079361 
	C63.571995,81.962006 61.145039,82.730293 57.569469,83.862198 
	C59.339146,79.618500 55.262878,75.514038 60.857670,72.821915 
	C61.721649,72.476952 61.913422,72.268852 62.034470,71.995567 
	C62.238121,71.958710 62.441772,71.921844 62.847458,71.649277 
	C63.955788,70.728729 65.384216,70.220047 65.684273,69.330681 
	C67.746811,63.217354 72.536919,63.392437 78.023544,63.917297 
	C77.972694,66.007492 77.435669,68.062286 76.859512,70.510735 
z"/>
<path fill="#19515F" opacity="1.000000" stroke="none" 
	d="
M335.119751,47.395329 
	C338.213257,48.145611 338.213409,50.279205 336.621063,52.470562 
	C335.485291,54.033546 334.039856,55.571243 332.388672,56.524426 
	C326.149994,60.125866 326.073273,65.462852 327.934998,71.819572 
	C326.963470,72.503906 325.820282,72.797806 324.306427,73.109299 
	C323.511688,66.624886 323.087616,60.122871 322.660614,53.575958 
	C327.489807,52.094608 333.986420,55.392815 335.119751,47.395329 
z"/>
<path fill="#276271" opacity="1.000000" stroke="none" 
	d="
M302.012268,67.780151 
	C304.353516,66.679451 306.701355,66.025986 309.049194,65.372520 
	C309.026215,65.017006 309.003204,64.661484 308.980225,64.305962 
	C306.575897,64.504524 304.171570,64.703094 301.368408,64.862175 
	C300.819702,63.508728 300.585571,62.197861 300.537170,60.880173 
	C300.429047,57.937183 303.527893,55.812176 306.280334,56.890186 
	C308.111023,57.607189 309.937195,58.335629 312.176697,59.102188 
	C312.644867,62.471710 312.701752,65.797997 312.669678,69.493874 
	C310.153320,70.232986 307.709900,70.938957 305.305511,70.824417 
	C304.171326,70.770386 303.112061,69.142265 302.012268,67.780151 
z"/>
<path fill="#19515F" opacity="1.000000" stroke="none" 
	d="
M316.160706,44.309952 
	C316.494080,44.018921 316.730408,44.037998 316.846069,44.015362 
	C316.490509,53.953392 316.019287,63.914059 315.548035,73.874725 
	C316.263702,73.999168 316.979340,74.123611 317.694977,74.248055 
	C318.095428,72.885895 318.817139,71.529533 318.841827,70.160591 
	C318.961853,63.508312 318.869598,56.852497 318.912354,50.198318 
	C318.923218,48.502735 319.152802,46.808552 320.373077,45.038456 
	C320.592102,45.826050 320.998657,46.613071 321.001068,47.401321 
	C321.024323,55.053139 321.013580,62.705559 320.924835,70.356789 
	C320.908081,71.799438 320.874939,73.466774 320.168884,74.610214 
	C319.526337,75.650734 318.022614,76.397758 316.763428,76.688011 
	C316.331635,76.787544 314.909668,75.102585 314.926117,74.251961 
	C315.117279,64.366188 315.497314,54.484070 316.160706,44.309952 
z"/>
<path fill="#1F5765" opacity="1.000000" stroke="none" 
	d="
M307.119629,51.113953 
	C305.382050,49.993221 304.080872,48.875004 302.779724,47.756786 
	C304.102264,46.806774 305.308350,45.387550 306.776245,45.023266 
	C308.693359,44.547493 310.817749,44.906757 312.852936,44.906757 
	C312.888306,45.407501 312.923676,45.908241 312.959015,46.408985 
	C310.309296,46.745243 307.659576,47.081501 305.009857,47.417759 
	C304.996948,47.796795 304.984039,48.175827 304.971130,48.554859 
	C307.525665,48.849361 310.080231,49.143864 312.634796,49.438366 
	C312.671234,49.822231 312.707672,50.206093 312.744080,50.589958 
	C311.014771,50.765461 309.285431,50.940964 307.119629,51.113953 
z"/>
<path fill="#1F5765" opacity="1.000000" stroke="none" 
	d="
M330.468933,51.013451 
	C327.731537,51.082550 325.422455,51.082550 323.113342,51.082550 
	C323.096649,50.506657 323.079926,49.930767 323.063232,49.354874 
	C325.495300,49.154552 327.927399,48.954231 330.359467,48.753906 
	C330.418671,48.369980 330.477875,47.986053 330.537079,47.602127 
	C328.393219,47.260612 326.249359,46.919098 323.518341,46.484043 
	C326.685699,44.297367 329.595215,44.076385 332.098724,46.268970 
	C332.644501,46.746975 331.346222,49.330521 330.468933,51.013451 
z"/>
<path fill="#84C0CB" opacity="1.000000" stroke="none" 
	d="
M245.002335,76.003441 
	C245.779770,75.998657 246.557205,75.993881 247.724365,75.981949 
	C248.429352,76.383652 248.744644,76.792519 249.159729,77.442963 
	C240.214264,84.870560 230.055237,85.358780 219.398880,82.548676 
	C218.560791,82.327667 217.917557,81.367760 217.100510,80.076378 
	C217.028244,79.182884 217.039230,78.964279 217.050217,78.745682 
	C217.485413,78.771324 217.920624,78.796974 218.778290,79.248360 
	C220.978638,80.372360 222.720490,81.520218 224.542572,81.666122 
	C227.456909,81.899475 230.456558,81.123360 233.362473,81.393700 
	C238.414841,81.863739 242.511154,80.809738 245.002335,76.003441 
z"/>
<path fill="#7FB8C3" opacity="1.000000" stroke="none" 
	d="
M251.184784,76.856651 
	C251.016525,67.013817 251.098007,56.987007 251.617737,47.446022 
	C252.104324,57.189434 252.152649,66.447021 252.200989,75.704613 
	C251.945496,76.027298 251.690018,76.349983 251.184784,76.856651 
z"/>
<path fill="#FBFCFD" opacity="1.000000" stroke="none" 
	d="
M252.428864,75.885239 
	C252.152649,66.447021 252.104324,57.189434 252.042725,47.462971 
	C252.029480,46.994095 251.984924,47.000351 252.306488,47.105846 
	C253.144913,47.815968 253.661789,48.420589 254.125565,49.489487 
	C254.087082,57.623760 254.101685,65.293762 254.116287,72.963760 
	C254.163361,74.049088 254.210419,75.134422 254.151566,76.616409 
	C253.582672,76.697327 253.119720,76.381599 252.428864,75.885239 
z"/>
<path fill="#7FB8C3" opacity="1.000000" stroke="none" 
	d="
M216.846619,78.700546 
	C217.039230,78.964279 217.028244,79.182884 216.998199,79.729965 
	C216.797760,80.038895 216.616394,80.019348 216.233826,79.682808 
	C216.111435,79.190567 216.190231,79.015320 216.269043,78.840065 
	C216.269043,78.840065 216.643021,78.655411 216.846619,78.700546 
z"/>
<path fill="#1E5867" opacity="1.000000" stroke="none" 
	d="
M215.754639,78.676483 
	C216.190231,79.015320 216.111435,79.190567 215.962769,79.645233 
	C215.644516,79.931938 215.396133,79.939232 214.775589,79.967903 
	C214.682373,79.497162 214.961319,79.005035 215.754639,78.676483 
z"/>
<path fill="#FBFCFD" opacity="1.000000" stroke="none" 
	d="
M253.965942,77.216019 
	C254.155350,77.250656 254.306305,77.548401 254.215515,77.927513 
	C253.958344,77.832298 253.942932,77.655708 253.965942,77.216019 
z"/>
<path fill="#77ACB6" opacity="1.000000" stroke="none" 
	d="
M254.353119,72.850922 
	C254.101685,65.293762 254.087082,57.623760 254.408386,49.484905 
	C255.121262,49.018116 255.498245,49.020184 255.875229,49.022255 
	C255.928711,56.369282 255.982193,63.716312 256.007629,71.531113 
	C255.516373,72.245277 255.053162,72.491676 254.353119,72.850922 
z"/>
<path fill="#E7EFF1" opacity="1.000000" stroke="none" 
	d="
M179.468781,77.166458 
	C178.094666,75.675392 177.060715,74.240631 176.001465,71.988922 
	C175.972305,69.425034 175.968414,67.678101 175.964523,65.931160 
	C176.010620,60.477119 176.120010,55.022655 176.083130,49.569176 
	C176.052765,45.079750 178.004028,42.573471 182.644302,42.986782 
	C189.225632,43.572975 196.306625,40.920895 202.556061,46.065826 
	C205.701691,50.064480 207.010635,54.100967 205.230774,58.866497 
	C204.756836,60.135475 205.347076,61.765423 205.233078,63.212658 
	C204.968994,66.565125 204.573120,69.907211 204.108612,73.609329 
	C203.986557,73.965149 203.652115,74.177284 203.195129,73.959305 
	C202.562393,73.567474 202.386673,73.393631 202.411163,72.914200 
	C202.659317,69.268753 202.690201,65.928505 202.763321,62.589188 
	C202.793930,61.192398 202.561646,59.654667 203.058685,58.428127 
	C204.674911,54.439819 204.066666,51.005619 200.955078,47.593849 
	C196.193069,43.881329 191.213257,44.882511 186.197357,46.032272 
	C190.765961,47.077892 195.334579,48.123516 200.053284,49.491859 
	C203.364349,53.899101 201.227280,57.534767 198.951035,61.048035 
	C202.084244,64.618484 202.524094,68.184219 200.174820,72.138199 
	C199.619598,73.072662 199.895004,74.500648 200.040894,75.945450 
	C200.471680,76.341011 200.649902,76.492729 200.828110,76.644455 
	C195.986572,79.487366 191.141464,79.783363 185.913589,77.394905 
	C184.208405,76.615868 181.862061,77.240250 179.468781,77.166458 
M197.058670,52.924294 
	C197.906189,57.973377 194.382706,57.636189 191.184738,57.679455 
	C189.583954,57.701115 187.982635,57.683231 186.381561,57.683231 
	C186.411469,58.408604 186.441391,59.133976 186.471313,59.859348 
	C189.123566,59.859348 191.812119,60.138535 194.420273,59.799393 
	C199.367783,59.156055 200.778549,55.524223 197.718262,50.262840 
	C194.097031,49.758938 190.475784,49.255039 186.854553,48.751137 
	C186.787369,49.356308 186.720184,49.961479 186.653015,50.566650 
	C190.087479,51.081375 193.521957,51.596104 197.058670,52.924294 
M180.183975,57.399437 
	C180.183975,54.112461 180.183975,50.825485 180.183975,47.538509 
	C180.815536,47.540630 181.447098,47.542747 182.078659,47.544868 
	C182.078659,52.129719 182.078659,56.714569 182.078659,61.915497 
	C185.001755,58.850796 185.540039,47.543640 183.278824,45.843273 
	C182.502594,45.259571 180.884247,44.923798 180.166351,45.347851 
	C179.196136,45.920940 178.171356,47.315273 178.130402,48.393707 
	C177.926392,53.766800 178.037186,59.151848 178.037186,64.532692 
	C178.536087,64.571991 179.035004,64.611290 179.533905,64.650589 
	C179.750259,62.541077 179.966629,60.431564 180.183975,57.399437 
M192.339951,70.152939 
	C190.540771,70.360901 188.741577,70.568871 186.942398,70.776833 
	C186.999893,71.347687 187.057388,71.918541 187.114883,72.489395 
	C190.909454,73.065735 195.070740,74.242355 198.099380,70.705139 
	C199.258438,69.351440 199.390396,65.573448 198.322952,64.155251 
	C195.415955,60.293003 191.237839,62.194622 187.482773,63.034813 
	C189.326614,63.971878 191.353363,63.563614 193.096619,64.091499 
	C194.705536,64.578712 196.010315,66.070259 197.449051,67.119446 
	C196.028168,68.129524 194.607269,69.139603 192.339951,70.152939 
z"/>
<path fill="#84C0CB" opacity="1.000000" stroke="none" 
	d="
M175.687805,66.092834 
	C175.968414,67.678101 175.972305,69.425034 175.945480,71.608185 
	C173.241379,73.602303 171.815659,72.496979 171.079590,69.471664 
	C171.614304,68.638214 172.202988,68.137558 172.914978,67.374634 
	C173.829224,66.826416 174.620163,66.540466 175.687805,66.092834 
z"/>
<path fill="#1E5E6F" opacity="1.000000" stroke="none" 
	d="
M170.103943,80.075325 
	C172.270523,79.225273 174.752609,78.652863 177.624695,78.159195 
	C178.011581,78.926552 178.008499,79.615158 178.009109,80.647980 
	C175.481705,80.779129 172.950592,80.566048 170.103943,80.075325 
z"/>
<path fill="#E7EFF1" opacity="1.000000" stroke="none" 
	d="
M203.001770,74.002060 
	C202.615097,74.954414 201.964783,75.646027 201.071289,76.491043 
	C200.649902,76.492729 200.471680,76.341011 200.100983,75.635422 
	C200.675995,74.460968 201.443466,73.840378 202.210938,73.219788 
	C202.386673,73.393631 202.562393,73.567474 203.001770,74.002060 
z"/>
<path fill="#73A9B3" opacity="1.000000" stroke="none" 
	d="
M46.341087,65.739777 
	C46.441547,63.911701 46.852547,62.058853 47.745594,60.291752 
	C48.434338,60.637268 48.683968,60.845581 48.978661,61.378323 
	C48.984539,62.506317 48.988289,63.258430 48.993622,64.234650 
	C48.995213,64.458748 49.009129,64.906754 49.009129,64.906754 
	C48.223293,65.176163 47.437458,65.445580 46.341087,65.739777 
z"/>
<path fill="#7AB5BF" opacity="1.000000" stroke="none" 
	d="
M49.333748,64.929657 
	C49.009129,64.906754 48.995213,64.458748 49.348671,64.235771 
	C50.174122,64.047668 50.646107,64.082542 51.118095,64.117424 
	C51.118095,64.117424 51.029133,64.502853 50.993275,64.696808 
	C50.524399,64.911354 50.091385,64.931961 49.333748,64.929657 
z"/>
<path fill="#235E6D" opacity="1.000000" stroke="none" 
	d="
M61.836510,72.055946 
	C61.913422,72.268852 61.721649,72.476952 61.245365,72.642166 
	C61.180080,72.422150 61.382401,72.239441 61.836510,72.055946 
z"/>
<path fill="#31626F" opacity="1.000000" stroke="none" 
	d="
M143.344055,75.269623 
	C141.912247,75.847458 140.686310,76.455704 139.551193,76.317574 
	C138.873810,76.235146 138.194702,75.048828 137.810577,74.222054 
	C137.655594,73.888474 138.286163,73.189903 138.559250,72.657440 
	C139.368530,73.094650 140.177811,73.531853 141.154221,74.059357 
	C142.767746,71.279816 144.384552,68.494591 146.001358,65.709373 
	C146.486130,65.955032 146.970901,66.200684 147.455688,66.446342 
	C146.166489,69.292870 144.877304,72.139404 143.344055,75.269623 
z"/>
<path fill="#235E6D" opacity="1.000000" stroke="none" 
	d="
M145.632767,75.695297 
	C145.913727,75.800896 145.917358,76.077019 145.892212,76.767647 
	C145.667053,77.170296 145.470703,77.158440 144.989899,77.068176 
	C144.922119,76.615112 145.138779,76.240471 145.632767,75.695297 
z"/>
<path fill="#396A76" opacity="1.000000" stroke="none" 
	d="
M149.490906,47.409904 
	C152.061462,43.727673 154.292465,44.170460 156.057175,47.545315 
	C157.042984,49.430603 157.568481,51.556606 158.301392,53.574142 
	C157.866898,53.759430 157.432388,53.944717 156.997894,54.130001 
	C155.753159,51.937065 154.508423,49.744129 152.843781,46.811428 
	C150.793686,50.268349 149.061493,53.189224 147.329285,56.110100 
	C146.873367,55.878178 146.417435,55.646255 145.961502,55.414333 
	C147.073502,52.854130 148.185516,50.293926 149.490906,47.409904 
z"/>
<path fill="#84C0CB" opacity="1.000000" stroke="none" 
	d="
M51.110573,64.084076 
	C50.646107,64.082542 50.174122,64.047668 49.347084,64.011673 
	C48.988289,63.258430 48.984539,62.506317 49.213486,61.141926 
	C49.618290,59.670498 49.790390,58.811344 49.962494,57.952194 
	C50.221333,57.790634 50.437244,57.584187 51.070408,57.143723 
	C51.999466,56.949734 52.468353,56.944881 52.954800,56.956642 
	C52.972363,56.973251 53.005089,57.005077 52.939629,57.365612 
	C52.261108,59.836510 51.648045,61.946877 51.034981,64.057243 
	C51.034985,64.057243 51.103050,64.050720 51.110573,64.084076 
z"/>
<path fill="#73A9B3" opacity="1.000000" stroke="none" 
	d="
M52.937237,56.940029 
	C52.468353,56.944881 51.999466,56.949734 51.175987,56.944679 
	C51.346558,55.710007 51.871719,54.485237 52.692299,53.455360 
	C52.987431,54.096344 52.987152,54.542446 52.979847,55.314285 
	C52.960964,56.073364 52.949100,56.506695 52.937237,56.940029 
z"/>
<path fill="#7AB5BF" opacity="1.000000" stroke="none" 
	d="
M52.986870,54.988544 
	C52.987152,54.542446 52.987431,54.096344 52.983528,53.315300 
	C53.766739,52.671539 54.554138,52.362724 55.654114,52.001228 
	C56.258774,52.107994 56.514084,52.313179 56.647491,53.001484 
	C55.370529,53.955418 54.178699,54.471981 52.986870,54.988544 
z"/>
<path fill="#7AB5BF" opacity="1.000000" stroke="none" 
	d="
M49.659698,58.023186 
	C49.790390,58.811344 49.618290,59.670498 49.211357,60.766045 
	C48.683968,60.845581 48.434338,60.637268 48.089798,60.173233 
	C48.420269,59.344036 48.888588,58.719109 49.659698,58.023186 
z"/>
<path fill="#84C0CB" opacity="1.000000" stroke="none" 
	d="
M52.979843,55.314285 
	C54.178699,54.471981 55.370529,53.955418 56.785309,53.205353 
	C58.070705,52.975239 59.133156,52.978622 60.593853,52.977196 
	C61.949337,53.771145 62.906570,54.569904 63.548752,55.618843 
	C59.824162,56.247704 56.414623,56.626389 53.005089,57.005077 
	C53.005089,57.005077 52.972363,56.973251 52.954800,56.956642 
	C52.949100,56.506695 52.960964,56.073364 52.979843,55.314285 
z"/>
<path fill="#87C8D4" opacity="1.000000" stroke="none" 
	d="
M52.939629,57.365612 
	C56.414623,56.626389 59.824162,56.247704 63.622307,55.930317 
	C64.781395,56.327518 65.551872,56.663418 66.649612,57.019817 
	C66.983833,58.383247 66.990799,59.726181 66.995827,61.472511 
	C61.948242,62.603371 56.902596,63.330826 51.445965,64.057762 
	C51.648045,61.946877 52.261108,59.836510 52.939629,57.365612 
z"/>
<path fill="#235E6D" opacity="1.000000" stroke="none" 
	d="
M145.979202,77.261971 
	C146.099625,77.097176 146.321655,77.141708 146.677612,77.324036 
	C146.822128,77.409050 146.458282,77.527382 146.458282,77.527382 
	C146.458282,77.527382 146.091415,77.418518 145.979202,77.261971 
z"/>
<path fill="#7FB8C3" opacity="1.000000" stroke="none" 
	d="
M245.000641,75.577377 
	C242.511154,80.809738 238.414841,81.863739 233.362473,81.393700 
	C230.456558,81.123360 227.456909,81.899475 224.542572,81.666122 
	C222.720490,81.520218 220.978638,80.372360 219.095963,79.326889 
	C224.262222,78.957047 229.557190,79.217491 234.792847,78.775421 
	C236.951050,78.593185 239.924698,77.397339 240.792023,75.749237 
	C241.580765,74.250458 240.017365,71.513840 239.237137,68.697739 
	C238.966599,67.294647 238.949738,66.516693 238.932861,65.738739 
	C241.373962,63.325974 242.557266,60.697834 240.180756,56.785789 
	C240.022964,54.764248 240.029999,53.445274 240.037048,52.126293 
	C240.581924,51.255238 241.126801,50.384182 241.845474,49.257607 
	C242.678894,50.340034 243.822937,51.644775 243.917313,53.021465 
	C244.422287,60.388184 244.665329,67.772858 245.000641,75.577377 
z"/>
<path fill="#77ACB6" opacity="1.000000" stroke="none" 
	d="
M216.479156,63.951710 
	C216.013550,63.546310 216.014984,63.164524 216.480286,62.411613 
	C223.500854,62.040489 230.057571,62.040489 236.614304,62.040489 
	C236.601639,61.304535 236.588959,60.568577 236.576294,59.832623 
	C229.722717,59.832623 222.869141,59.832623 216.011719,59.546112 
	C216.009293,58.877701 216.010681,58.495808 216.012085,58.113911 
	C222.456207,58.046806 228.907333,57.799347 235.339096,58.049736 
	C236.798355,58.106544 238.190384,59.890297 239.613358,60.879147 
	C238.175125,61.906151 236.781906,63.736065 235.290802,63.819653 
	C229.192184,64.161537 223.063690,63.970276 216.479156,63.951710 
z"/>
<path fill="#82B3BC" opacity="1.000000" stroke="none" 
	d="
M239.020905,47.004074 
	C239.368698,49.928493 238.226929,51.343113 235.131210,51.155506 
	C232.654709,51.005417 230.160263,51.181484 227.675735,51.125984 
	C224.071335,51.045467 220.226135,50.419765 218.515488,55.538609 
	C218.414093,53.607887 218.312714,51.677162 218.172119,48.999943 
	C223.066422,48.999943 227.488953,49.098614 231.903076,48.949100 
	C233.559860,48.892982 235.197098,48.260258 237.206757,47.460068 
	C238.053802,47.021175 238.537354,47.012627 239.020905,47.004074 
z"/>
<path fill="#7FB8C3" opacity="1.000000" stroke="none" 
	d="
M238.875351,46.625336 
	C238.537354,47.012627 238.053802,47.021175 237.207306,47.046055 
	C230.301727,47.100185 223.759064,47.137985 216.569061,47.033714 
	C215.783386,46.762390 215.645096,46.633144 215.506821,46.503906 
	C216.300934,46.034767 217.111679,45.134075 217.886551,45.163929 
	C224.837875,45.431736 231.782913,45.863220 238.875351,46.625336 
z"/>
<path fill="#73A9B3" opacity="1.000000" stroke="none" 
	d="
M238.476959,65.824387 
	C238.949738,66.516693 238.966599,67.294647 238.978012,68.460266 
	C233.702484,68.601196 228.432419,68.354454 223.162338,68.107712 
	C223.180634,67.375153 223.198914,66.642586 223.217209,65.910027 
	C228.151825,65.910027 233.086441,65.910027 238.476959,65.824387 
z"/>
<path fill="#89B5BD" opacity="1.000000" stroke="none" 
	d="
M227.760483,74.426872 
	C230.678864,74.207176 233.597229,73.987473 236.947968,73.215271 
	C237.571228,72.139420 237.762146,71.616058 237.953079,71.092682 
	C238.498993,72.246132 239.762909,73.730865 239.419937,74.474167 
	C238.924759,75.547356 237.317093,76.624084 236.090668,76.744080 
	C232.689774,77.076805 229.240555,76.915527 225.593140,76.690880 
	C226.170715,75.763824 226.965607,75.095345 227.760483,74.426872 
z"/>
<path fill="#82B3BC" opacity="1.000000" stroke="none" 
	d="
M239.681122,52.272850 
	C240.029999,53.445274 240.022964,54.764248 240.026474,56.478455 
	C234.524933,56.358078 229.012833,55.842476 223.500732,55.326870 
	C223.486755,55.150749 223.472778,54.974625 223.458786,54.798500 
	C228.747604,54.005466 234.036407,53.212437 239.681122,52.272850 
z"/>
<path fill="#31626F" opacity="1.000000" stroke="none" 
	d="
M227.314026,74.426544 
	C226.965607,75.095345 226.170715,75.763824 225.129852,76.610107 
	C222.562195,76.812408 220.186478,77.146004 217.937775,76.752930 
	C216.432999,76.489914 215.108673,75.194595 214.362808,73.783508 
	C218.531052,73.997742 222.699310,74.211975 227.314026,74.426544 
z"/>
<path fill="#6C9CA5" opacity="1.000000" stroke="none" 
	d="
M237.500397,70.983429 
	C237.762146,71.616058 237.571228,72.139420 237.165604,72.849586 
	C231.630157,72.986877 226.309418,72.937363 220.387466,72.623116 
	C220.318420,71.762947 220.850586,71.167519 221.382736,70.572090 
	C226.604401,70.672775 231.826065,70.773468 237.500397,70.983429 
z"/>
<path fill="#7FB8C3" opacity="1.000000" stroke="none" 
	d="
M216.124695,47.090141 
	C216.115204,50.061787 215.902695,52.834938 215.690170,55.608086 
	C215.105209,55.553871 214.520233,55.499660 213.935257,55.445446 
	C214.252060,52.617378 214.568878,49.789310 215.196259,46.732574 
	C215.645096,46.633144 215.783386,46.762390 216.124695,47.090141 
z"/>
<path fill="#9AC3CB" opacity="1.000000" stroke="none" 
	d="
M221.260071,70.216095 
	C220.850586,71.167519 220.318420,71.762947 219.924149,72.605316 
	C219.252716,70.820633 218.443375,68.789001 217.634048,66.757378 
	C218.367645,66.504013 219.101242,66.250648 219.834839,65.997284 
	C220.269028,67.284882 220.703201,68.572487 221.260071,70.216095 
z"/>
<path fill="#7CB8C3" opacity="1.000000" stroke="none" 
	d="
M215.699066,58.090485 
	C216.010681,58.495808 216.009293,58.877701 215.717407,59.636787 
	C215.026962,60.103619 214.626968,60.193264 214.226990,60.282906 
	C214.101776,60.144192 213.976562,60.005482 213.671234,59.646126 
	C214.122757,58.972679 214.754395,58.519871 215.699066,58.090485 
z"/>
<path fill="#7FB8C3" opacity="1.000000" stroke="none" 
	d="
M272.995667,70.973419 
	C273.966827,71.855263 275.288940,72.586723 275.758881,73.683342 
	C275.988647,74.219543 274.669403,76.188950 273.988434,76.222176 
	C269.272400,76.452293 264.539795,76.343468 259.851471,75.409599 
	C264.325592,74.744293 268.799713,74.078987 273.133301,72.828751 
	C272.993713,71.820358 272.994690,71.396889 272.995667,70.973419 
z"/>
<path fill="#77ACB6" opacity="1.000000" stroke="none" 
	d="
M272.532013,70.924492 
	C272.994690,71.396889 272.993713,71.820358 272.985840,72.561005 
	C268.228851,72.878181 263.478790,72.878181 258.728729,72.878181 
	C258.689911,72.210640 258.651093,71.543106 258.612305,70.875565 
	C263.097656,70.875565 267.583008,70.875565 272.532013,70.924492 
z"/>
<path fill="#7FB8C3" opacity="1.000000" stroke="none" 
	d="
M255.926971,48.653488 
	C255.498245,49.020184 255.121262,49.018116 254.461456,49.020630 
	C253.661789,48.420589 253.144913,47.815968 252.315384,47.127060 
	C252.507614,46.422745 253.012512,45.802711 253.517410,45.182678 
	C254.337845,46.216694 255.158295,47.250710 255.926971,48.653488 
z"/>
<path fill="#F3F8F9" opacity="1.000000" stroke="none" 
	d="
M214.049088,60.519569 
	C214.626968,60.193264 215.026962,60.103619 215.721252,59.923302 
	C222.869141,59.832623 229.722717,59.832623 236.576294,59.832623 
	C236.588959,60.568577 236.601639,61.304535 236.614304,62.040489 
	C230.057571,62.040489 223.500854,62.040489 216.483521,62.125160 
	C215.305664,61.725296 214.588425,61.240765 214.049088,60.519569 
z"/>
<path fill="#396A76" opacity="1.000000" stroke="none" 
	d="
M180.183487,57.860744 
	C179.966629,60.431564 179.750259,62.541077 179.533905,64.650589 
	C179.035004,64.611290 178.536087,64.571991 178.037186,64.532692 
	C178.037186,59.151848 177.926392,53.766800 178.130402,48.393707 
	C178.171356,47.315273 179.196136,45.920940 180.166351,45.347851 
	C180.884247,44.923798 182.502594,45.259571 183.278824,45.843273 
	C185.540039,47.543640 185.001755,58.850796 182.078659,61.915497 
	C182.078659,56.714569 182.078659,52.129719 182.078659,47.544868 
	C181.447098,47.542747 180.815536,47.540630 180.183975,47.538509 
	C180.183975,50.825485 180.183975,54.112461 180.183487,57.860744 
z"/>
<path fill="#82B3BC" opacity="1.000000" stroke="none" 
	d="
M192.763168,70.151306 
	C194.607269,69.139603 196.028168,68.129524 197.449051,67.119446 
	C196.010315,66.070259 194.705536,64.578712 193.096619,64.091499 
	C191.353363,63.563614 189.326614,63.971878 187.482773,63.034813 
	C191.237839,62.194622 195.415955,60.293003 198.322952,64.155251 
	C199.390396,65.573448 199.258438,69.351440 198.099380,70.705139 
	C195.070740,74.242355 190.909454,73.065735 187.114883,72.489395 
	C187.057388,71.918541 186.999893,71.347687 186.942398,70.776833 
	C188.741577,70.568871 190.540771,70.360901 192.763168,70.151306 
z"/>
<path fill="#89B5BD" opacity="1.000000" stroke="none" 
	d="
M202.411163,72.914207 
	C201.443466,73.840378 200.675995,74.460968 199.848419,75.391586 
	C199.895004,74.500648 199.619598,73.072662 200.174820,72.138199 
	C202.524094,68.184219 202.084244,64.618484 198.951035,61.048035 
	C201.227280,57.534767 203.364349,53.899101 200.321869,49.349899 
	C200.677826,48.561199 200.915268,48.237183 201.152710,47.913166 
	C204.066666,51.005619 204.674911,54.439819 203.058685,58.428127 
	C202.561646,59.654667 202.793930,61.192398 202.763321,62.589188 
	C202.690201,65.928505 202.659317,69.268753 202.411163,72.914207 
z"/>
<path fill="#89B5BD" opacity="1.000000" stroke="none" 
	d="
M198.079544,50.960728 
	C200.778549,55.524223 199.367783,59.156055 194.420273,59.799393 
	C191.812119,60.138535 189.123566,59.859348 186.471313,59.859348 
	C186.441391,59.133976 186.411469,58.408604 186.381561,57.683231 
	C187.982635,57.683231 189.583954,57.701115 191.184738,57.679455 
	C194.382706,57.636189 197.906189,57.973377 197.147430,52.282982 
	C197.517303,51.414692 197.798431,51.187710 198.079544,50.960728 
z"/>
<path fill="#1F5765" opacity="1.000000" stroke="none" 
	d="
M200.955078,47.593849 
	C200.915268,48.237183 200.677826,48.561199 200.171783,49.027176 
	C195.334579,48.123516 190.765961,47.077892 186.197357,46.032272 
	C191.213257,44.882511 196.193069,43.881329 200.955078,47.593849 
z"/>
<path fill="#31626F" opacity="1.000000" stroke="none" 
	d="
M197.898895,50.611786 
	C197.798431,51.187710 197.517303,51.414692 197.096313,51.876251 
	C193.521957,51.596104 190.087479,51.081375 186.653015,50.566650 
	C186.720184,49.961479 186.787369,49.356308 186.854553,48.751137 
	C190.475784,49.255039 194.097031,49.758938 197.898895,50.611786 
z"/>
</svg>